<?xml version="1.0" encoding="utf-8"?>
<!-- Generator: Adobe Illustrator 25.0.1, SVG Export Plug-In . SVG Version: 6.00 Build 0)  -->
<svg version="1.1" xmlns="http://www.w3.org/2000/svg" xmlns:xlink="http://www.w3.org/1999/xlink" x="0px" y="0px"
	 viewBox="0 0 259.1 119" style="enable-background:new 0 0 259.1 119;" xml:space="preserve">
<style type="text/css">
	.st0{fill:#FFFFFF;}
	.st1{fill:#1D4B73;}
	.st2{fill:#3791A6;}
	.st3{fill:#205662;}
	.st4{fill:#62D9A1;}
	.st5{opacity:0.7;}
	.st6{display:none;}
	.st7{display:inline;opacity:0.2;fill:#F919A4;}
	.st8{display:inline;}
	.st9{fill:#F919A4;}
	.st10{display:inline;fill:#F919A4;}
</style>
<g id="Layer_1">
	<path class="st0" d="M59.5,25.2c-18.9,0-34.3,15.3-34.3,34.3c0,18.9,15.3,34.3,34.3,34.3s34.3-15.3,34.3-34.3
		C93.8,40.6,78.4,25.2,59.5,25.2z M59.5,86.7c-15,0-27.2-12.2-27.2-27.2c0-15,12.2-27.2,27.2-27.2s27.2,12.2,27.2,27.2
		C86.7,74.5,74.5,86.7,59.5,86.7z"/>
	<g>
		<path class="st1" d="M100.7,44.2c0-1.9,0.3-3.6,1-5.2s1.6-2.9,2.8-4c1.2-1.1,2.5-2,4.2-2.6c1.6-0.6,3.3-0.9,5.1-0.9
			s3.5,0.3,5.1,0.9c1.6,0.6,3,1.5,4.2,2.6c1.2,1.1,2.1,2.4,2.8,4c0.7,1.5,1,3.3,1,5.2c0,1.9-0.3,3.6-1,5.2c-0.7,1.6-1.6,2.9-2.8,4
			c-1.2,1.1-2.5,2-4.2,2.5c-1.6,0.6-3.3,0.9-5.1,0.9s-3.5-0.3-5.1-0.9c-1.6-0.6-3-1.5-4.2-2.5c-1.2-1.1-2.1-2.4-2.8-4
			C101,47.8,100.7,46.1,100.7,44.2z M106.7,44.2c0,0.9,0.2,1.8,0.5,2.7c0.3,0.9,0.8,1.6,1.4,2.3c0.6,0.7,1.4,1.2,2.2,1.6
			c0.9,0.4,1.9,0.6,3,0.6s2.1-0.2,3-0.6c0.9-0.4,1.6-0.9,2.2-1.6c0.6-0.7,1.1-1.4,1.4-2.3c0.3-0.9,0.5-1.8,0.5-2.7
			c0-0.9-0.2-1.8-0.5-2.7c-0.3-0.9-0.8-1.6-1.4-2.3c-0.6-0.7-1.4-1.2-2.2-1.6c-0.9-0.4-1.9-0.6-3-0.6s-2.1,0.2-3,0.6
			c-0.9,0.4-1.6,0.9-2.2,1.6c-0.6,0.7-1.1,1.4-1.4,2.3C106.9,42.4,106.7,43.3,106.7,44.2z"/>
		<path class="st1" d="M148.8,39.4c-0.7-0.7-1.4-1.3-2.2-1.8c-0.8-0.4-1.5-0.7-2.3-0.7c-1.1,0-2.1,0.2-3,0.6
			c-0.9,0.4-1.6,0.9-2.2,1.6c-0.6,0.7-1.1,1.4-1.4,2.3c-0.3,0.9-0.5,1.8-0.5,2.7c0,0.9,0.2,1.8,0.5,2.7c0.3,0.9,0.8,1.6,1.4,2.3
			c0.6,0.7,1.4,1.2,2.2,1.6c0.9,0.4,1.9,0.6,3,0.6c0.9,0,1.8-0.2,2.6-0.6c0.8-0.4,1.5-0.9,2.1-1.7l4,4.3c-0.6,0.6-1.3,1.1-2.1,1.5
			c-0.8,0.4-1.6,0.8-2.4,1.1c-0.8,0.3-1.6,0.5-2.3,0.6c-0.7,0.1-1.4,0.2-1.9,0.2c-1.8,0-3.5-0.3-5.1-0.9c-1.6-0.6-3-1.5-4.2-2.5
			c-1.2-1.1-2.1-2.4-2.8-4c-0.7-1.5-1-3.3-1-5.2c0-1.9,0.3-3.6,1-5.2s1.6-2.9,2.8-4c1.2-1.1,2.5-2,4.2-2.6c1.6-0.6,3.3-0.9,5.1-0.9
			c1.5,0,3.1,0.3,4.6,0.9c1.5,0.6,2.9,1.5,4.1,2.8L148.8,39.4z"/>
		<path class="st1" d="M161.3,46.3c0.2,1.8,0.9,3.2,2.1,4.2s2.7,1.5,4.4,1.5c1.5,0,2.8-0.3,3.8-0.9c1-0.6,1.9-1.4,2.7-2.3l4.3,3.2
			c-1.4,1.7-3,3-4.7,3.7c-1.7,0.7-3.5,1.1-5.5,1.1c-1.8,0-3.5-0.3-5.1-0.9c-1.6-0.6-3-1.5-4.2-2.5c-1.2-1.1-2.1-2.4-2.8-4
			c-0.7-1.5-1-3.3-1-5.2c0-1.9,0.3-3.6,1-5.2s1.6-2.9,2.8-4c1.2-1.1,2.5-2,4.2-2.6c1.6-0.6,3.3-0.9,5.1-0.9c1.7,0,3.2,0.3,4.6,0.9
			c1.4,0.6,2.6,1.4,3.5,2.5c1,1.1,1.8,2.5,2.3,4.1c0.5,1.6,0.8,3.5,0.8,5.6v1.7H161.3z M173.6,41.8c0-1.8-0.6-3.2-1.7-4.2
			c-1.1-1-2.5-1.5-4.4-1.5c-1.8,0-3.2,0.5-4.3,1.5s-1.7,2.4-1.9,4.2H173.6z"/>
		<path class="st1" d="M200.2,52.9H200c-0.9,1.4-2,2.4-3.3,3c-1.3,0.6-2.8,0.9-4.4,0.9c-1.1,0-2.2-0.2-3.2-0.5s-2-0.8-2.8-1.4
			c-0.8-0.6-1.5-1.3-2-2.2c-0.5-0.9-0.8-1.9-0.8-3.1c0-1.3,0.2-2.4,0.7-3.3c0.5-0.9,1.1-1.7,1.9-2.3c0.8-0.6,1.7-1.1,2.7-1.5
			c1-0.4,2.1-0.6,3.2-0.8c1.1-0.2,2.2-0.3,3.4-0.4c1.1,0,2.2-0.1,3.2-0.1h1.5v-0.6c0-1.5-0.5-2.6-1.6-3.4s-2.3-1.1-3.9-1.1
			c-1.3,0-2.5,0.2-3.6,0.7c-1.1,0.5-2,1.1-2.8,1.8l-3.2-3.2c1.3-1.4,2.9-2.3,4.7-3c1.8-0.6,3.6-0.9,5.5-0.9c1.7,0,3.1,0.2,4.3,0.6
			c1.2,0.4,2.1,0.9,2.9,1.5c0.8,0.6,1.4,1.3,1.8,2.1c0.4,0.8,0.7,1.6,0.9,2.4c0.2,0.8,0.3,1.6,0.3,2.3s0,1.4,0,2v13.8h-5.4V52.9z
			 M199.8,45.4h-1.2c-0.8,0-1.8,0-2.8,0.1s-2,0.2-2.9,0.5c-0.9,0.2-1.7,0.6-2.3,1.1c-0.6,0.5-1,1.2-1,2c0,0.6,0.1,1,0.4,1.4
			c0.2,0.4,0.6,0.7,1,1c0.4,0.3,0.8,0.5,1.3,0.6c0.5,0.1,1,0.2,1.5,0.2c2.1,0,3.6-0.5,4.6-1.5c1-1,1.5-2.3,1.5-4V45.4z"/>
		<path class="st1" d="M212,32.2h5.7V36h0.1c0.6-1.2,1.4-2.2,2.6-3.1s2.8-1.3,4.8-1.3c1.6,0,3,0.3,4.1,0.8c1.1,0.5,2,1.2,2.7,2.1
			c0.7,0.9,1.2,1.9,1.5,3c0.3,1.1,0.5,2.3,0.5,3.6v15.1h-6V44c0-0.7,0-1.4-0.1-2.2c-0.1-0.8-0.2-1.6-0.5-2.3s-0.7-1.3-1.3-1.8
			c-0.6-0.5-1.4-0.7-2.4-0.7c-1,0-1.8,0.2-2.5,0.5c-0.7,0.3-1.2,0.8-1.7,1.4c-0.5,0.6-0.8,1.2-1,2s-0.3,1.5-0.3,2.3v13.1h-6V32.2z"
			/>
	</g>
	<g>
		<path class="st2" d="M100.7,68.5c0-0.7,0.1-1.4,0.4-2c0.2-0.6,0.6-1.1,1-1.5c0.4-0.4,0.9-0.8,1.5-1c0.6-0.2,1.2-0.3,2-0.3
			c0.7,0,1.4,0.1,2,0.3c0.6,0.2,1.1,0.5,1.5,1s0.8,0.9,1,1.5c0.2,0.6,0.4,1.3,0.4,2c0,0.7-0.1,1.4-0.4,2c-0.2,0.6-0.6,1.1-1,1.5
			s-0.9,0.8-1.5,1c-0.6,0.2-1.3,0.4-2,0.4c-0.7,0-1.4-0.1-2-0.3s-1.1-0.6-1.5-1c-0.4-0.4-0.8-0.9-1-1.5
			C100.8,69.8,100.7,69.2,100.7,68.5z M102.4,68.3c0,0.5,0.1,0.9,0.2,1.4s0.4,0.8,0.6,1.1s0.6,0.5,1,0.7c0.4,0.2,0.8,0.3,1.3,0.3
			s0.9-0.1,1.3-0.3c0.4-0.2,0.7-0.4,1-0.7s0.5-0.7,0.6-1.1c0.2-0.4,0.2-0.9,0.2-1.4c0-0.5-0.1-0.9-0.2-1.3c-0.2-0.4-0.4-0.7-0.6-1
			s-0.6-0.5-1-0.7c-0.4-0.2-0.8-0.3-1.3-0.3s-0.9,0.1-1.3,0.3c-0.4,0.2-0.7,0.4-1,0.7s-0.5,0.6-0.6,1
			C102.5,67.5,102.4,67.9,102.4,68.3z"/>
		<path class="st2" d="M112.5,68.1h-1.3v-1.3h1.3v-0.9c0-0.4,0-0.8,0.1-1.2c0.1-0.4,0.2-0.7,0.3-0.9c0.2-0.3,0.4-0.4,0.7-0.6
			c0.3-0.1,0.7-0.2,1.2-0.2c0.4,0,0.7,0,1,0.1l-0.1,1.3c-0.1,0-0.2,0-0.3-0.1c-0.1,0-0.2,0-0.3,0c-0.2,0-0.4,0-0.5,0.1
			s-0.2,0.2-0.3,0.3s-0.1,0.3-0.1,0.4c0,0.2,0,0.3,0,0.5v1.1h1.4v1.3H114V73h-1.6V68.1z"/>
		<path class="st2" d="M116.9,68.1h-1.3v-1.3h1.3v-0.9c0-0.4,0-0.8,0.1-1.2c0.1-0.4,0.2-0.7,0.3-0.9c0.2-0.3,0.4-0.4,0.7-0.6
			c0.3-0.1,0.7-0.2,1.2-0.2c0.4,0,0.7,0,1,0.1l-0.1,1.3c-0.1,0-0.2,0-0.3-0.1c-0.1,0-0.2,0-0.3,0c-0.2,0-0.4,0-0.5,0.1
			s-0.2,0.2-0.3,0.3c-0.1,0.1-0.1,0.3-0.1,0.4c0,0.2,0,0.3,0,0.5v1.1h1.4v1.3h-1.4V73h-1.6V68.1z"/>
		<path class="st2" d="M124.3,68.5c-0.3-0.4-0.7-0.6-1.2-0.6c-0.2,0-0.4,0.1-0.6,0.2c-0.2,0.1-0.3,0.3-0.3,0.5
			c0,0.2,0.1,0.3,0.2,0.4c0.2,0.1,0.4,0.2,0.6,0.2c0.3,0.1,0.5,0.1,0.8,0.2c0.3,0.1,0.6,0.2,0.8,0.3c0.3,0.1,0.5,0.3,0.6,0.6
			c0.2,0.2,0.2,0.6,0.2,1c0,0.4-0.1,0.7-0.2,0.9c-0.2,0.3-0.4,0.5-0.6,0.6c-0.3,0.2-0.5,0.3-0.9,0.3c-0.3,0.1-0.6,0.1-1,0.1
			c-0.5,0-0.9-0.1-1.3-0.2s-0.8-0.4-1.1-0.8l1-1c0.2,0.2,0.4,0.4,0.6,0.6c0.2,0.1,0.5,0.2,0.8,0.2c0.1,0,0.2,0,0.4,0
			s0.2-0.1,0.3-0.1c0.1-0.1,0.2-0.1,0.3-0.2c0.1-0.1,0.1-0.2,0.1-0.3c0-0.2-0.1-0.4-0.2-0.5c-0.2-0.1-0.4-0.2-0.6-0.3
			c-0.3-0.1-0.5-0.1-0.8-0.2c-0.3-0.1-0.6-0.1-0.8-0.3c-0.3-0.1-0.5-0.3-0.6-0.5c-0.2-0.2-0.2-0.5-0.2-0.9c0-0.3,0.1-0.6,0.2-0.9
			c0.1-0.3,0.3-0.5,0.6-0.6c0.2-0.2,0.5-0.3,0.8-0.4c0.3-0.1,0.6-0.1,0.9-0.1c0.4,0,0.8,0.1,1.2,0.2c0.4,0.1,0.7,0.4,1,0.7
			L124.3,68.5z"/>
		<path class="st2" d="M128.3,67.6L128.3,67.6c0.1-0.3,0.4-0.5,0.7-0.7s0.7-0.3,1.2-0.3c0.4,0,0.8,0.1,1.1,0.2
			c0.3,0.1,0.5,0.3,0.7,0.5s0.3,0.5,0.4,0.8c0.1,0.3,0.1,0.6,0.1,0.9V73h-1.6v-3.2c0-0.2,0-0.4,0-0.6c0-0.2-0.1-0.4-0.1-0.6
			c-0.1-0.2-0.2-0.3-0.3-0.5c-0.2-0.1-0.4-0.2-0.6-0.2c-0.3,0-0.5,0-0.7,0.1c-0.2,0.1-0.3,0.2-0.4,0.4c-0.1,0.1-0.2,0.3-0.3,0.5
			s-0.1,0.4-0.1,0.6V73h-1.6v-9.8h1.6V67.6z"/>
		<path class="st2" d="M133.9,69.9c0-0.5,0.1-0.9,0.3-1.3c0.2-0.4,0.4-0.7,0.7-1c0.3-0.3,0.7-0.5,1.1-0.7c0.4-0.2,0.9-0.2,1.3-0.2
			c0.5,0,0.9,0.1,1.3,0.2c0.4,0.2,0.8,0.4,1.1,0.7s0.5,0.6,0.7,1c0.2,0.4,0.3,0.9,0.3,1.3c0,0.5-0.1,0.9-0.3,1.3s-0.4,0.7-0.7,1
			c-0.3,0.3-0.7,0.5-1.1,0.7c-0.4,0.2-0.9,0.2-1.3,0.2c-0.5,0-0.9-0.1-1.3-0.2c-0.4-0.2-0.8-0.4-1.1-0.7c-0.3-0.3-0.5-0.6-0.7-1
			S133.9,70.4,133.9,69.9z M135.5,69.9c0,0.2,0,0.5,0.1,0.7c0.1,0.2,0.2,0.4,0.4,0.6c0.2,0.2,0.4,0.3,0.6,0.4
			c0.2,0.1,0.5,0.2,0.8,0.2c0.3,0,0.5-0.1,0.8-0.2c0.2-0.1,0.4-0.2,0.6-0.4c0.2-0.2,0.3-0.4,0.4-0.6c0.1-0.2,0.1-0.5,0.1-0.7
			c0-0.2,0-0.5-0.1-0.7c-0.1-0.2-0.2-0.4-0.4-0.6c-0.2-0.2-0.4-0.3-0.6-0.4c-0.2-0.1-0.5-0.2-0.8-0.2c-0.3,0-0.5,0.1-0.8,0.2
			c-0.2,0.1-0.4,0.2-0.6,0.4c-0.2,0.2-0.3,0.4-0.4,0.6C135.6,69.4,135.5,69.7,135.5,69.9z"/>
		<path class="st2" d="M142.2,66.8h1.6v1h0c0.2-0.4,0.4-0.6,0.7-0.8c0.3-0.2,0.7-0.3,1.1-0.3c0.1,0,0.2,0,0.3,0c0.1,0,0.2,0,0.3,0.1
			v1.5c-0.1,0-0.3-0.1-0.4-0.1s-0.2,0-0.4,0c-0.4,0-0.7,0.1-0.9,0.2c-0.2,0.1-0.4,0.3-0.5,0.5c-0.1,0.2-0.2,0.3-0.2,0.5
			c0,0.2-0.1,0.3-0.1,0.4V73h-1.6V66.8z"/>
		<path class="st2" d="M148.4,70.4c0.1,0.5,0.2,0.8,0.5,1.1c0.3,0.3,0.7,0.4,1.1,0.4c0.4,0,0.7-0.1,1-0.2s0.5-0.4,0.7-0.6l1.1,0.8
			c-0.4,0.5-0.8,0.8-1.2,1c-0.5,0.2-0.9,0.3-1.4,0.3c-0.5,0-0.9-0.1-1.3-0.2c-0.4-0.2-0.8-0.4-1.1-0.7c-0.3-0.3-0.5-0.6-0.7-1
			s-0.3-0.9-0.3-1.3c0-0.5,0.1-0.9,0.3-1.3c0.2-0.4,0.4-0.7,0.7-1s0.7-0.5,1.1-0.7c0.4-0.2,0.9-0.2,1.3-0.2c0.4,0,0.8,0.1,1.2,0.2
			s0.7,0.4,0.9,0.7s0.5,0.6,0.6,1.1c0.1,0.4,0.2,0.9,0.2,1.4v0.4H148.4z M151.6,69.3c0-0.5-0.2-0.8-0.4-1.1s-0.7-0.4-1.2-0.4
			c-0.5,0-0.8,0.1-1.1,0.4c-0.3,0.3-0.4,0.6-0.5,1.1H151.6z"/>
		<path class="st2" d="M165,66c-0.3-0.4-0.7-0.6-1-0.7c-0.3-0.1-0.6-0.2-1-0.2c-0.5,0-0.9,0.1-1.3,0.3c-0.4,0.2-0.7,0.4-1,0.7
			s-0.5,0.6-0.6,1c-0.2,0.4-0.2,0.8-0.2,1.3c0,0.5,0.1,0.9,0.2,1.4s0.4,0.8,0.6,1.1s0.6,0.5,1,0.7c0.4,0.2,0.8,0.3,1.3,0.3
			c0.4,0,0.7-0.1,1.1-0.3c0.4-0.2,0.7-0.5,1-0.9l1.4,1c-0.4,0.6-0.9,1-1.5,1.2c-0.6,0.3-1.2,0.4-1.9,0.4c-0.7,0-1.4-0.1-2-0.3
			s-1.1-0.6-1.5-1c-0.4-0.4-0.8-0.9-1-1.5c-0.2-0.6-0.4-1.2-0.4-2c0-0.7,0.1-1.4,0.4-2c0.2-0.6,0.6-1.1,1-1.5c0.4-0.4,0.9-0.8,1.5-1
			c0.6-0.2,1.2-0.3,2-0.3c0.6,0,1.2,0.1,1.7,0.3c0.5,0.2,1,0.6,1.5,1.1L165,66z"/>
		<path class="st2" d="M167.2,69.9c0-0.5,0.1-0.9,0.3-1.3c0.2-0.4,0.4-0.7,0.7-1c0.3-0.3,0.7-0.5,1.1-0.7c0.4-0.2,0.9-0.2,1.3-0.2
			c0.5,0,0.9,0.1,1.3,0.2c0.4,0.2,0.8,0.4,1.1,0.7s0.5,0.6,0.7,1c0.2,0.4,0.3,0.9,0.3,1.3c0,0.5-0.1,0.9-0.3,1.3s-0.4,0.7-0.7,1
			c-0.3,0.3-0.7,0.5-1.1,0.7c-0.4,0.2-0.9,0.2-1.3,0.2c-0.5,0-0.9-0.1-1.3-0.2c-0.4-0.2-0.8-0.4-1.1-0.7c-0.3-0.3-0.5-0.6-0.7-1
			S167.2,70.4,167.2,69.9z M168.7,69.9c0,0.2,0,0.5,0.1,0.7c0.1,0.2,0.2,0.4,0.4,0.6c0.2,0.2,0.4,0.3,0.6,0.4
			c0.2,0.1,0.5,0.2,0.8,0.2c0.3,0,0.5-0.1,0.8-0.2c0.2-0.1,0.4-0.2,0.6-0.4c0.2-0.2,0.3-0.4,0.4-0.6c0.1-0.2,0.1-0.5,0.1-0.7
			c0-0.2,0-0.5-0.1-0.7c-0.1-0.2-0.2-0.4-0.4-0.6c-0.2-0.2-0.4-0.3-0.6-0.4c-0.2-0.1-0.5-0.2-0.8-0.2c-0.3,0-0.5,0.1-0.8,0.2
			c-0.2,0.1-0.4,0.2-0.6,0.4c-0.2,0.2-0.3,0.4-0.4,0.6C168.8,69.4,168.7,69.7,168.7,69.9z"/>
		<path class="st2" d="M179.4,72.2L179.4,72.2c-0.3,0.4-0.6,0.6-0.9,0.8c-0.3,0.2-0.7,0.2-1.1,0.2c-0.3,0-0.6,0-0.8-0.1
			c-0.3-0.1-0.5-0.2-0.7-0.4c-0.2-0.2-0.4-0.4-0.5-0.6c-0.1-0.2-0.2-0.5-0.2-0.8c0-0.3,0.1-0.6,0.2-0.9c0.1-0.2,0.3-0.4,0.5-0.6
			c0.2-0.2,0.4-0.3,0.7-0.4c0.3-0.1,0.5-0.2,0.8-0.2s0.6-0.1,0.9-0.1c0.3,0,0.6,0,0.8,0h0.4V69c0-0.4-0.1-0.7-0.4-0.9
			c-0.3-0.2-0.6-0.3-1-0.3c-0.3,0-0.6,0.1-0.9,0.2c-0.3,0.1-0.5,0.3-0.7,0.5l-0.8-0.8c0.3-0.4,0.8-0.6,1.2-0.8
			c0.5-0.2,0.9-0.2,1.4-0.2c0.4,0,0.8,0,1.1,0.1c0.3,0.1,0.6,0.2,0.8,0.4c0.2,0.2,0.4,0.3,0.5,0.5c0.1,0.2,0.2,0.4,0.2,0.6
			s0.1,0.4,0.1,0.6c0,0.2,0,0.4,0,0.5V73h-1.4V72.2z M179.3,70.2H179c-0.2,0-0.5,0-0.7,0c-0.3,0-0.5,0.1-0.8,0.1
			c-0.2,0.1-0.4,0.2-0.6,0.3c-0.2,0.1-0.2,0.3-0.2,0.5c0,0.1,0,0.3,0.1,0.4c0.1,0.1,0.1,0.2,0.3,0.3c0.1,0.1,0.2,0.1,0.4,0.1
			c0.1,0,0.3,0,0.4,0c0.5,0,0.9-0.1,1.2-0.4c0.3-0.3,0.4-0.6,0.4-1V70.2z"/>
		<path class="st2" d="M182.5,63.2h1.6V73h-1.6V63.2z"/>
		<path class="st2" d="M185.8,64.7c0-0.3,0.1-0.5,0.3-0.7c0.2-0.2,0.4-0.3,0.7-0.3c0.3,0,0.5,0.1,0.7,0.3c0.2,0.2,0.3,0.4,0.3,0.7
			s-0.1,0.5-0.3,0.7c-0.2,0.2-0.4,0.3-0.7,0.3c-0.3,0-0.5-0.1-0.7-0.3S185.8,64.9,185.8,64.7z M186,66.8h1.6V73H186V66.8z"/>
		<path class="st2" d="M188.7,68.1v-1.3h1.3V65h1.6v1.8h1.7v1.3h-1.7v2.7c0,0.3,0.1,0.6,0.2,0.7c0.1,0.2,0.3,0.3,0.7,0.3
			c0.1,0,0.3,0,0.5,0c0.2,0,0.3-0.1,0.4-0.2V73c-0.2,0.1-0.4,0.1-0.6,0.2s-0.4,0-0.6,0c-0.4,0-0.8,0-1-0.1c-0.3-0.1-0.5-0.2-0.6-0.4
			c-0.2-0.2-0.3-0.4-0.3-0.7s-0.1-0.6-0.1-1v-2.9H188.7z"/>
		<path class="st2" d="M194.3,64.7c0-0.3,0.1-0.5,0.3-0.7c0.2-0.2,0.4-0.3,0.7-0.3s0.5,0.1,0.7,0.3c0.2,0.2,0.3,0.4,0.3,0.7
			s-0.1,0.5-0.3,0.7c-0.2,0.2-0.4,0.3-0.7,0.3s-0.5-0.1-0.7-0.3C194.4,65.1,194.3,64.9,194.3,64.7z M194.5,66.8h1.6V73h-1.6V66.8z"
			/>
		<path class="st2" d="M197.6,69.9c0-0.5,0.1-0.9,0.3-1.3c0.2-0.4,0.4-0.7,0.7-1c0.3-0.3,0.7-0.5,1.1-0.7c0.4-0.2,0.9-0.2,1.3-0.2
			c0.5,0,0.9,0.1,1.3,0.2c0.4,0.2,0.8,0.4,1.1,0.7s0.5,0.6,0.7,1c0.2,0.4,0.3,0.9,0.3,1.3c0,0.5-0.1,0.9-0.3,1.3s-0.4,0.7-0.7,1
			c-0.3,0.3-0.7,0.5-1.1,0.7c-0.4,0.2-0.9,0.2-1.3,0.2c-0.5,0-0.9-0.1-1.3-0.2c-0.4-0.2-0.8-0.4-1.1-0.7c-0.3-0.3-0.5-0.6-0.7-1
			S197.6,70.4,197.6,69.9z M199.2,69.9c0,0.2,0,0.5,0.1,0.7c0.1,0.2,0.2,0.4,0.4,0.6c0.2,0.2,0.4,0.3,0.6,0.4
			c0.2,0.1,0.5,0.2,0.8,0.2c0.3,0,0.5-0.1,0.8-0.2c0.2-0.1,0.4-0.2,0.6-0.4c0.2-0.2,0.3-0.4,0.4-0.6c0.1-0.2,0.1-0.5,0.1-0.7
			c0-0.2,0-0.5-0.1-0.7c-0.1-0.2-0.2-0.4-0.4-0.6c-0.2-0.2-0.4-0.3-0.6-0.4c-0.2-0.1-0.5-0.2-0.8-0.2c-0.3,0-0.5,0.1-0.8,0.2
			c-0.2,0.1-0.4,0.2-0.6,0.4c-0.2,0.2-0.3,0.4-0.4,0.6C199.2,69.4,199.2,69.7,199.2,69.9z"/>
		<path class="st2" d="M205.9,66.8h1.5v1h0c0.1-0.3,0.4-0.6,0.7-0.8c0.3-0.2,0.7-0.3,1.2-0.3c0.4,0,0.8,0.1,1.1,0.2
			c0.3,0.1,0.5,0.3,0.7,0.5s0.3,0.5,0.4,0.8c0.1,0.3,0.1,0.6,0.1,0.9V73h-1.6v-3.2c0-0.2,0-0.4,0-0.6c0-0.2-0.1-0.4-0.1-0.6
			c-0.1-0.2-0.2-0.3-0.3-0.5c-0.2-0.1-0.4-0.2-0.6-0.2c-0.3,0-0.5,0-0.7,0.1c-0.2,0.1-0.3,0.2-0.4,0.4c-0.1,0.1-0.2,0.3-0.3,0.5
			s-0.1,0.4-0.1,0.6V73h-1.6V66.8z"/>
		<path class="st2" d="M217.9,68.1h-1.3v-1.3h1.3v-0.9c0-0.4,0-0.8,0.1-1.2c0.1-0.4,0.2-0.7,0.3-0.9c0.2-0.3,0.4-0.4,0.7-0.6
			c0.3-0.1,0.7-0.2,1.2-0.2c0.4,0,0.7,0,1,0.1l-0.1,1.3c-0.1,0-0.2,0-0.3-0.1c-0.1,0-0.2,0-0.3,0c-0.2,0-0.4,0-0.5,0.1
			s-0.2,0.2-0.3,0.3c-0.1,0.1-0.1,0.3-0.1,0.4c0,0.2,0,0.3,0,0.5v1.1h1.4v1.3h-1.4V73h-1.6V68.1z"/>
		<path class="st2" d="M221.6,69.9c0-0.5,0.1-0.9,0.3-1.3c0.2-0.4,0.4-0.7,0.7-1s0.7-0.5,1.1-0.7c0.4-0.2,0.9-0.2,1.3-0.2
			s0.9,0.1,1.3,0.2c0.4,0.2,0.8,0.4,1.1,0.7c0.3,0.3,0.5,0.6,0.7,1c0.2,0.4,0.3,0.9,0.3,1.3c0,0.5-0.1,0.9-0.3,1.3s-0.4,0.7-0.7,1
			c-0.3,0.3-0.7,0.5-1.1,0.7c-0.4,0.2-0.9,0.2-1.3,0.2s-0.9-0.1-1.3-0.2c-0.4-0.2-0.8-0.4-1.1-0.7c-0.3-0.3-0.5-0.6-0.7-1
			S221.6,70.4,221.6,69.9z M223.2,69.9c0,0.2,0,0.5,0.1,0.7c0.1,0.2,0.2,0.4,0.4,0.6c0.2,0.2,0.4,0.3,0.6,0.4
			c0.2,0.1,0.5,0.2,0.8,0.2s0.5-0.1,0.8-0.2c0.2-0.1,0.4-0.2,0.6-0.4c0.2-0.2,0.3-0.4,0.4-0.6c0.1-0.2,0.1-0.5,0.1-0.7
			c0-0.2,0-0.5-0.1-0.7c-0.1-0.2-0.2-0.4-0.4-0.6c-0.2-0.2-0.4-0.3-0.6-0.4c-0.2-0.1-0.5-0.2-0.8-0.2s-0.5,0.1-0.8,0.2
			c-0.2,0.1-0.4,0.2-0.6,0.4c-0.2,0.2-0.3,0.4-0.4,0.6C223.2,69.4,223.2,69.7,223.2,69.9z"/>
		<path class="st2" d="M229.9,66.8h1.6v1h0c0.2-0.4,0.4-0.6,0.7-0.8c0.3-0.2,0.7-0.3,1.1-0.3c0.1,0,0.2,0,0.3,0c0.1,0,0.2,0,0.3,0.1
			v1.5c-0.1,0-0.3-0.1-0.4-0.1s-0.2,0-0.4,0c-0.4,0-0.7,0.1-0.9,0.2c-0.2,0.1-0.4,0.3-0.5,0.5c-0.1,0.2-0.2,0.3-0.2,0.5
			c0,0.2-0.1,0.3-0.1,0.4V73h-1.6V66.8z"/>
		<path class="st2" d="M100.8,77.5h6.1V79h-4.5v2.3h4.2v1.5h-4.2v2.5h4.7v1.5h-6.3V77.5z"/>
		<path class="st2" d="M108.6,80.5h1.5v1h0c0.1-0.3,0.4-0.6,0.7-0.8c0.3-0.2,0.7-0.3,1.2-0.3c0.4,0,0.8,0.1,1.1,0.2s0.5,0.3,0.7,0.5
			c0.2,0.2,0.3,0.5,0.4,0.8s0.1,0.6,0.1,0.9v3.9h-1.6v-3.2c0-0.2,0-0.4,0-0.6c0-0.2-0.1-0.4-0.1-0.6c-0.1-0.2-0.2-0.3-0.3-0.5
			s-0.4-0.2-0.6-0.2c-0.3,0-0.5,0-0.7,0.1s-0.3,0.2-0.4,0.4c-0.1,0.1-0.2,0.3-0.3,0.5c-0.1,0.2-0.1,0.4-0.1,0.6v3.4h-1.6V80.5z"/>
		<path class="st2" d="M117.4,84.2c0.1,0.5,0.2,0.8,0.5,1.1c0.3,0.3,0.7,0.4,1.1,0.4c0.4,0,0.7-0.1,1-0.2c0.3-0.2,0.5-0.4,0.7-0.6
			l1.1,0.8c-0.4,0.5-0.8,0.8-1.2,1c-0.5,0.2-0.9,0.3-1.4,0.3c-0.5,0-0.9-0.1-1.3-0.2s-0.8-0.4-1.1-0.7c-0.3-0.3-0.5-0.6-0.7-1
			c-0.2-0.4-0.3-0.9-0.3-1.3s0.1-0.9,0.3-1.3s0.4-0.7,0.7-1c0.3-0.3,0.7-0.5,1.1-0.7s0.9-0.2,1.3-0.2c0.4,0,0.8,0.1,1.2,0.2
			c0.4,0.2,0.7,0.4,0.9,0.7c0.3,0.3,0.5,0.6,0.6,1.1c0.1,0.4,0.2,0.9,0.2,1.5v0.4H117.4z M120.6,83c0-0.5-0.2-0.8-0.4-1.1
			c-0.3-0.3-0.7-0.4-1.2-0.4c-0.5,0-0.8,0.1-1.1,0.4c-0.3,0.3-0.4,0.6-0.5,1.1H120.6z"/>
		<path class="st2" d="M123.7,80.5h1.6v1h0c0.2-0.4,0.4-0.6,0.7-0.8c0.3-0.2,0.7-0.3,1.1-0.3c0.1,0,0.2,0,0.3,0s0.2,0,0.3,0.1V82
			c-0.1,0-0.3-0.1-0.4-0.1c-0.1,0-0.2,0-0.4,0c-0.4,0-0.7,0.1-0.9,0.2c-0.2,0.1-0.4,0.3-0.5,0.5c-0.1,0.2-0.2,0.3-0.2,0.5
			c0,0.2-0.1,0.3-0.1,0.4v3.3h-1.6V80.5z"/>
		<path class="st2" d="M135,80.5v5.7c0,0.6-0.1,1.1-0.2,1.5c-0.1,0.5-0.4,0.8-0.6,1.2s-0.7,0.6-1.1,0.7c-0.4,0.2-1,0.3-1.6,0.3
			c-0.6,0-1.1-0.1-1.7-0.2c-0.5-0.1-1-0.4-1.4-0.8l0.9-1.3c0.3,0.3,0.6,0.5,1,0.7c0.3,0.2,0.7,0.2,1.2,0.2c0.4,0,0.7-0.1,0.9-0.2
			c0.3-0.1,0.5-0.2,0.6-0.4s0.3-0.4,0.3-0.7c0.1-0.3,0.1-0.5,0.1-0.9v-0.5h0c-0.2,0.3-0.5,0.5-0.9,0.7c-0.4,0.2-0.8,0.2-1.1,0.2
			c-0.5,0-0.9-0.1-1.3-0.3c-0.4-0.2-0.7-0.4-1-0.7c-0.3-0.3-0.5-0.6-0.6-1c-0.1-0.4-0.2-0.8-0.2-1.2c0-0.5,0.1-0.9,0.2-1.3
			s0.3-0.7,0.6-1s0.6-0.5,1-0.7s0.8-0.3,1.3-0.3c0.4,0,0.9,0.1,1.2,0.3c0.4,0.2,0.7,0.5,0.9,0.8h0v-0.9H135z M131.6,81.8
			c-0.3,0-0.5,0-0.8,0.1s-0.4,0.2-0.6,0.4c-0.2,0.2-0.3,0.4-0.4,0.6s-0.1,0.5-0.1,0.8c0,0.3,0,0.5,0.1,0.7c0.1,0.2,0.2,0.4,0.4,0.6
			c0.2,0.2,0.4,0.3,0.6,0.4c0.2,0.1,0.5,0.1,0.7,0.1c0.3,0,0.5,0,0.8-0.1c0.2-0.1,0.4-0.2,0.6-0.4s0.3-0.4,0.4-0.6
			c0.1-0.2,0.1-0.5,0.1-0.7c0-0.5-0.2-1-0.5-1.3C132.6,81.9,132.2,81.8,131.6,81.8z"/>
		<path class="st2" d="M135.9,80.5h1.7l1.7,4.3h0l1.6-4.3h1.6l-3,7.6c-0.1,0.3-0.2,0.6-0.4,0.8s-0.3,0.4-0.5,0.6
			c-0.2,0.2-0.4,0.3-0.6,0.3c-0.2,0.1-0.5,0.1-0.9,0.1c-0.4,0-0.8-0.1-1.2-0.2l0.2-1.4c0.1,0,0.2,0.1,0.4,0.1c0.1,0,0.3,0,0.4,0
			c0.2,0,0.4,0,0.5-0.1c0.1,0,0.2-0.1,0.3-0.2c0.1-0.1,0.2-0.2,0.2-0.3c0.1-0.1,0.1-0.3,0.2-0.4l0.3-0.7L135.9,80.5z"/>
		<path class="st2" d="M151.4,85.9L151.4,85.9c-0.3,0.4-0.6,0.6-0.9,0.8s-0.7,0.2-1.1,0.2c-0.3,0-0.6,0-0.8-0.1s-0.5-0.2-0.7-0.4
			c-0.2-0.2-0.4-0.4-0.5-0.6c-0.1-0.2-0.2-0.5-0.2-0.8c0-0.3,0.1-0.6,0.2-0.9c0.1-0.2,0.3-0.4,0.5-0.6c0.2-0.2,0.4-0.3,0.7-0.4
			c0.3-0.1,0.5-0.2,0.8-0.2c0.3,0,0.6-0.1,0.9-0.1c0.3,0,0.6,0,0.8,0h0.4v-0.2c0-0.4-0.1-0.7-0.4-0.9s-0.6-0.3-1-0.3
			c-0.3,0-0.6,0.1-0.9,0.2s-0.5,0.3-0.7,0.5l-0.8-0.8c0.3-0.4,0.8-0.6,1.2-0.8s0.9-0.2,1.4-0.2c0.4,0,0.8,0,1.1,0.1s0.6,0.2,0.8,0.4
			s0.4,0.3,0.5,0.5c0.1,0.2,0.2,0.4,0.2,0.6c0,0.2,0.1,0.4,0.1,0.6c0,0.2,0,0.4,0,0.5v3.6h-1.4V85.9z M151.3,84H151
			c-0.2,0-0.5,0-0.7,0c-0.3,0-0.5,0.1-0.8,0.1c-0.2,0.1-0.4,0.2-0.6,0.3c-0.2,0.1-0.2,0.3-0.2,0.5c0,0.1,0,0.3,0.1,0.4
			c0.1,0.1,0.1,0.2,0.3,0.3c0.1,0.1,0.2,0.1,0.4,0.1s0.3,0,0.4,0c0.5,0,0.9-0.1,1.2-0.4c0.3-0.3,0.4-0.6,0.4-1V84z"/>
		<path class="st2" d="M154.5,80.5h1.5v1h0c0.1-0.3,0.4-0.6,0.7-0.8c0.3-0.2,0.7-0.3,1.2-0.3c0.4,0,0.8,0.1,1.1,0.2s0.5,0.3,0.7,0.5
			c0.2,0.2,0.3,0.5,0.4,0.8s0.1,0.6,0.1,0.9v3.9h-1.6v-3.2c0-0.2,0-0.4,0-0.6c0-0.2-0.1-0.4-0.1-0.6c-0.1-0.2-0.2-0.3-0.3-0.5
			s-0.4-0.2-0.6-0.2c-0.3,0-0.5,0-0.7,0.1s-0.3,0.2-0.4,0.4c-0.1,0.1-0.2,0.3-0.3,0.5c-0.1,0.2-0.1,0.4-0.1,0.6v3.4h-1.6V80.5z"/>
		<path class="st2" d="M167,85.8L167,85.8c-0.3,0.4-0.6,0.7-0.9,0.8c-0.4,0.2-0.8,0.3-1.2,0.3c-0.5,0-0.9-0.1-1.3-0.3
			s-0.7-0.4-1-0.7s-0.5-0.6-0.6-1s-0.2-0.8-0.2-1.3s0.1-0.9,0.2-1.3s0.4-0.7,0.6-1s0.6-0.5,1-0.7c0.4-0.2,0.8-0.3,1.2-0.3
			c0.3,0,0.6,0,0.8,0.1c0.2,0.1,0.4,0.1,0.6,0.2c0.2,0.1,0.3,0.2,0.4,0.3c0.1,0.1,0.2,0.2,0.3,0.3h0v-4.4h1.6v9.8H167V85.8z
			 M163.3,83.6c0,0.2,0,0.5,0.1,0.7c0.1,0.2,0.2,0.4,0.4,0.6c0.2,0.2,0.4,0.3,0.6,0.4c0.2,0.1,0.5,0.2,0.8,0.2s0.5-0.1,0.8-0.2
			c0.2-0.1,0.4-0.2,0.6-0.4c0.2-0.2,0.3-0.4,0.4-0.6c0.1-0.2,0.1-0.5,0.1-0.7s0-0.5-0.1-0.7c-0.1-0.2-0.2-0.4-0.4-0.6
			c-0.2-0.2-0.4-0.3-0.6-0.4c-0.2-0.1-0.5-0.2-0.8-0.2s-0.5,0.1-0.8,0.2c-0.2,0.1-0.4,0.2-0.6,0.4c-0.2,0.2-0.3,0.4-0.4,0.6
			C163.3,83.2,163.3,83.4,163.3,83.6z"/>
		<path class="st2" d="M174.3,77.5h2.2l4.5,6.8h0v-6.8h1.6v9.2h-2.1l-4.6-7.1h0v7.1h-1.6V77.5z"/>
		<path class="st2" d="M188.5,85.9L188.5,85.9c-0.3,0.4-0.6,0.6-0.9,0.8c-0.3,0.2-0.7,0.2-1.1,0.2c-0.3,0-0.6,0-0.8-0.1
			c-0.3-0.1-0.5-0.2-0.7-0.4c-0.2-0.2-0.4-0.4-0.5-0.6c-0.1-0.2-0.2-0.5-0.2-0.8c0-0.3,0.1-0.6,0.2-0.9c0.1-0.2,0.3-0.4,0.5-0.6
			c0.2-0.2,0.4-0.3,0.7-0.4c0.3-0.1,0.5-0.2,0.8-0.2c0.3,0,0.6-0.1,0.9-0.1c0.3,0,0.6,0,0.8,0h0.4v-0.2c0-0.4-0.1-0.7-0.4-0.9
			s-0.6-0.3-1-0.3c-0.3,0-0.6,0.1-0.9,0.2c-0.3,0.1-0.5,0.3-0.7,0.5l-0.8-0.8c0.3-0.4,0.8-0.6,1.2-0.8c0.5-0.2,0.9-0.2,1.4-0.2
			c0.4,0,0.8,0,1.1,0.1c0.3,0.1,0.6,0.2,0.8,0.4c0.2,0.2,0.4,0.3,0.5,0.5c0.1,0.2,0.2,0.4,0.2,0.6s0.1,0.4,0.1,0.6
			c0,0.2,0,0.4,0,0.5v3.6h-1.4V85.9z M188.4,84H188c-0.2,0-0.5,0-0.7,0c-0.3,0-0.5,0.1-0.8,0.1c-0.2,0.1-0.4,0.2-0.6,0.3
			c-0.2,0.1-0.2,0.3-0.2,0.5c0,0.1,0,0.3,0.1,0.4c0.1,0.1,0.1,0.2,0.3,0.3c0.1,0.1,0.2,0.1,0.4,0.1s0.3,0,0.4,0
			c0.5,0,0.9-0.1,1.2-0.4s0.4-0.6,0.4-1V84z"/>
		<path class="st2" d="M190.9,81.8v-1.3h1.3v-1.8h1.6v1.8h1.7v1.3h-1.7v2.7c0,0.3,0.1,0.6,0.2,0.7c0.1,0.2,0.3,0.3,0.7,0.3
			c0.1,0,0.3,0,0.5,0c0.2,0,0.3-0.1,0.4-0.1v1.3c-0.2,0.1-0.4,0.1-0.6,0.2s-0.4,0-0.6,0c-0.4,0-0.8,0-1-0.1
			c-0.3-0.1-0.5-0.2-0.6-0.4c-0.2-0.2-0.3-0.4-0.3-0.7s-0.1-0.6-0.1-1v-2.9H190.9z"/>
		<path class="st2" d="M202.4,86.7h-1.5v-1h0c-0.1,0.3-0.4,0.6-0.7,0.8s-0.7,0.3-1.2,0.3c-0.4,0-0.8-0.1-1.1-0.2
			c-0.3-0.1-0.5-0.3-0.7-0.5c-0.2-0.2-0.3-0.5-0.4-0.8c-0.1-0.3-0.1-0.6-0.1-0.9v-3.9h1.6v3.2c0,0.2,0,0.4,0,0.6
			c0,0.2,0.1,0.4,0.1,0.6c0.1,0.2,0.2,0.3,0.3,0.5s0.4,0.2,0.6,0.2c0.3,0,0.5,0,0.7-0.1c0.2-0.1,0.3-0.2,0.4-0.4s0.2-0.3,0.3-0.5
			c0.1-0.2,0.1-0.4,0.1-0.6v-3.4h1.6V86.7z"/>
		<path class="st2" d="M204.2,80.5h1.6v1h0c0.2-0.4,0.4-0.6,0.7-0.8c0.3-0.2,0.7-0.3,1.1-0.3c0.1,0,0.2,0,0.3,0c0.1,0,0.2,0,0.3,0.1
			V82c-0.1,0-0.3-0.1-0.4-0.1s-0.2,0-0.4,0c-0.4,0-0.7,0.1-0.9,0.2c-0.2,0.1-0.4,0.3-0.5,0.5c-0.1,0.2-0.2,0.3-0.2,0.5
			c0,0.2-0.1,0.3-0.1,0.4v3.3h-1.6V80.5z"/>
		<path class="st2" d="M210.3,84.2c0.1,0.5,0.2,0.8,0.5,1.1c0.3,0.3,0.7,0.4,1.1,0.4c0.4,0,0.7-0.1,1-0.2c0.3-0.2,0.5-0.4,0.7-0.6
			l1.1,0.8c-0.4,0.5-0.8,0.8-1.2,1c-0.5,0.2-0.9,0.3-1.4,0.3c-0.5,0-0.9-0.1-1.3-0.2s-0.8-0.4-1.1-0.7c-0.3-0.3-0.5-0.6-0.7-1
			c-0.2-0.4-0.3-0.9-0.3-1.3s0.1-0.9,0.3-1.3s0.4-0.7,0.7-1c0.3-0.3,0.7-0.5,1.1-0.7s0.9-0.2,1.3-0.2c0.4,0,0.8,0.1,1.2,0.2
			c0.4,0.2,0.7,0.4,0.9,0.7c0.3,0.3,0.5,0.6,0.6,1.1c0.1,0.4,0.2,0.9,0.2,1.5v0.4H210.3z M213.5,83c0-0.5-0.2-0.8-0.4-1.1
			c-0.3-0.3-0.7-0.4-1.2-0.4c-0.5,0-0.8,0.1-1.1,0.4c-0.3,0.3-0.4,0.6-0.5,1.1H213.5z"/>
	</g>
	<g>
		<g>
			<g>
				<path class="st2" d="M67.1,51.4c-18.6-6.6-25.4,9.5-41.5,2.9c-0.2,1.4-0.3,2.8-0.4,4.3c9.7,3.2,16,10.8,30.1,4
					c17.9-8.6,30-8.2,38.4-5.7c-0.1-2-0.5-4-1-5.9C85.4,52.6,77.8,55.2,67.1,51.4z"/>
				<path class="st1" d="M93.7,56.9c-8.4-2.5-20.5-2.9-38.4,5.7c-14,6.8-20.4-0.8-30.1-4c0,0.3,0,0.6,0,0.9c0,3,0.4,6,1.1,8.8
					c1,0.5,2.1,1.2,3.1,1.9c0,0,0,0,0.1,0c7,4.9,12.8,2.5,19.9,0c7.4-2.7,16.1-5.5,29.1-0.4c0.4,0.2,0.8,0.3,1.1,0.4
					c3.9,1.3,7.3,0.9,10.3,0c0.9-0.3,1.7-0.6,2.5-0.9c0.9-3.1,1.4-6.3,1.4-9.7C93.8,58.6,93.7,57.8,93.7,56.9z"/>
				<path class="st3" d="M89.8,70.1c-3,0.9-6.3,1.3-10.3,0c-0.4-0.1-0.8-0.3-1.1-0.4c-12.9-5.1-21.7-2.3-29.1,0.4
					c-7.1,2.6-12.9,5-19.9,0c0,0,0,0-0.1,0c-1-0.7-2.1-1.3-3.1-1.9c0.2,0.6,0.4,1.3,0.6,1.9c1.7,5.1,4.5,9.6,8.1,13.3
					c6.2,6.4,14.9,10.3,24.5,10.3c9.6,0,18.3-3.9,24.5-10.3c3.6-3.7,6.4-8.3,8.1-13.3c0.1-0.3,0.2-0.6,0.3-0.9
					C91.5,69.5,90.7,69.9,89.8,70.1z"/>
				<path class="st4" d="M89.8,70.1c-3,0.9-6.3,1.3-10.3,0c-0.4-0.1-0.8-0.3-1.1-0.4c-12.9-5.1-21.7-2.3-29.1,0.4
					c-7.1,2.6-12.9,5-19.9,0c0,0,0,0-0.1,0c-1-0.7-2.1-1.3-3.1-1.9c0.2,0.6,0.4,1.3,0.6,1.9c1.7,5.1,4.5,9.6,8.1,13.3
					c6.2,6.4,14.9,10.3,24.5,10.3c9.6,0,18.3-3.9,24.5-10.3c3.6-3.7,6.4-8.3,8.1-13.3c0.1-0.3,0.2-0.6,0.3-0.9
					C91.5,69.5,90.7,69.9,89.8,70.1z"/>
			</g>
		</g>
		<g>
			<path class="st0" d="M59.1,54.3C59.1,54.3,59.1,54.4,59.1,54.3C59.1,54.4,59.1,54.3,59.1,54.3C59.1,54.3,59.1,54.3,59.1,54.3z"/>
			<path class="st0" d="M59.1,69c0,0.1,0,0.2-0.1,0.2c0,0,0,0,0,0C59.1,69.1,59.1,69,59.1,69z"/>
		</g>
	</g>
	<g class="st5">
		<path class="st2" d="M59.4,25.2c-18.9,0-34.3,15.3-34.3,34.3c0,18.9,15.3,34.3,34.3,34.3c18.9,0,34.3-15.3,34.3-34.3
			C93.7,40.5,78.4,25.2,59.4,25.2z M59.4,86.8c-15.1,0-27.3-12.2-27.3-27.3c0-15.1,12.2-27.3,27.3-27.3c15.1,0,27.3,12.2,27.3,27.3
			C86.7,74.5,74.5,86.8,59.4,86.8z"/>
	</g>
</g>
<g id="clear_space" class="st6">
	<path class="st7" d="M0,0v119h259.1V0H0z M233.9,93.8H25.2V25.2h208.8V93.8z"/>
	<g class="st8">
		<path class="st9" d="M116.5,12.6c0-1.9,0.3-3.6,1-5.2s1.6-2.9,2.8-4c1.2-1.1,2.5-2,4.2-2.6c1.6-0.6,3.3-0.9,5.1-0.9
			c1.8,0,3.5,0.3,5.1,0.9c1.6,0.6,3,1.5,4.2,2.6c1.2,1.1,2.1,2.4,2.8,4c0.7,1.5,1,3.3,1,5.2c0,1.9-0.3,3.6-1,5.2
			c-0.7,1.6-1.6,2.9-2.8,4c-1.2,1.1-2.5,2-4.2,2.5c-1.6,0.6-3.3,0.9-5.1,0.9c-1.8,0-3.5-0.3-5.1-0.9c-1.6-0.6-3-1.5-4.2-2.5
			c-1.2-1.1-2.1-2.4-2.8-4C116.9,16.2,116.5,14.5,116.5,12.6z M122.5,12.6c0,0.9,0.2,1.8,0.5,2.7c0.3,0.9,0.8,1.6,1.4,2.3
			c0.6,0.7,1.4,1.2,2.2,1.6c0.9,0.4,1.9,0.6,3,0.6s2.1-0.2,3-0.6c0.9-0.4,1.6-0.9,2.2-1.6c0.6-0.7,1.1-1.4,1.4-2.3
			c0.3-0.9,0.5-1.8,0.5-2.7c0-0.9-0.2-1.8-0.5-2.7c-0.3-0.9-0.8-1.6-1.4-2.3c-0.6-0.7-1.4-1.2-2.2-1.6c-0.9-0.4-1.9-0.6-3-0.6
			s-2.1,0.2-3,0.6c-0.9,0.4-1.6,0.9-2.2,1.6c-0.6,0.7-1.1,1.4-1.4,2.3C122.7,10.8,122.5,11.7,122.5,12.6z"/>
	</g>
	<g class="st8">
		<path class="st9" d="M100.8,44.2c0-1.9,0.3-3.6,1-5.2s1.6-2.9,2.8-4c1.2-1.1,2.5-2,4.2-2.6c1.6-0.6,3.3-0.9,5.1-0.9
			s3.5,0.3,5.1,0.9c1.6,0.6,3,1.5,4.2,2.6c1.2,1.1,2.1,2.4,2.8,4c0.7,1.5,1,3.3,1,5.2c0,1.9-0.3,3.6-1,5.2c-0.7,1.6-1.6,2.9-2.8,4
			c-1.2,1.1-2.5,2-4.2,2.5c-1.6,0.6-3.3,0.9-5.1,0.9s-3.5-0.3-5.1-0.9c-1.6-0.6-3-1.5-4.2-2.5c-1.2-1.1-2.1-2.4-2.8-4
			C101.1,47.8,100.8,46.1,100.8,44.2z M106.8,44.2c0,0.9,0.2,1.8,0.5,2.7c0.3,0.9,0.8,1.6,1.4,2.3c0.6,0.7,1.4,1.2,2.2,1.6
			c0.9,0.4,1.9,0.6,3,0.6s2.1-0.2,3-0.6c0.9-0.4,1.6-0.9,2.2-1.6c0.6-0.7,1.1-1.4,1.4-2.3c0.3-0.9,0.5-1.8,0.5-2.7
			c0-0.9-0.2-1.8-0.5-2.7c-0.3-0.9-0.8-1.6-1.4-2.3c-0.6-0.7-1.4-1.2-2.2-1.6c-0.9-0.4-1.9-0.6-3-0.6s-2.1,0.2-3,0.6
			c-0.9,0.4-1.6,0.9-2.2,1.6c-0.6,0.7-1.1,1.4-1.4,2.3C106.9,42.4,106.8,43.3,106.8,44.2z"/>
	</g>
	<g class="st8">
		<path class="st9" d="M116.5,106.4c0-1.9,0.3-3.6,1-5.2s1.6-2.9,2.8-4c1.2-1.1,2.5-2,4.2-2.6c1.6-0.6,3.3-0.9,5.1-0.9
			c1.8,0,3.5,0.3,5.1,0.9c1.6,0.6,3,1.5,4.2,2.6c1.2,1.1,2.1,2.4,2.8,4c0.7,1.5,1,3.3,1,5.2c0,1.9-0.3,3.6-1,5.2
			c-0.7,1.6-1.6,2.9-2.8,4c-1.2,1.1-2.5,2-4.2,2.5c-1.6,0.6-3.3,0.9-5.1,0.9c-1.8,0-3.5-0.3-5.1-0.9c-1.6-0.6-3-1.5-4.2-2.5
			c-1.2-1.1-2.1-2.4-2.8-4C116.9,110,116.5,108.3,116.5,106.4z M122.5,106.4c0,0.9,0.2,1.8,0.5,2.7c0.3,0.9,0.8,1.6,1.4,2.3
			c0.6,0.7,1.4,1.2,2.2,1.6c0.9,0.4,1.9,0.6,3,0.6s2.1-0.2,3-0.6c0.9-0.4,1.6-0.9,2.2-1.6c0.6-0.7,1.1-1.4,1.4-2.3
			c0.3-0.9,0.5-1.8,0.5-2.7c0-0.9-0.2-1.8-0.5-2.7c-0.3-0.9-0.8-1.6-1.4-2.3c-0.6-0.7-1.4-1.2-2.2-1.6c-0.9-0.4-1.9-0.6-3-0.6
			s-2.1,0.2-3,0.6c-0.9,0.4-1.6,0.9-2.2,1.6c-0.6,0.7-1.1,1.4-1.4,2.3C122.7,104.5,122.5,105.4,122.5,106.4z"/>
	</g>
	<g class="st8">
		<path class="st9" d="M12.6,46.4c1.9,0,3.6,0.3,5.2,1s2.9,1.6,4,2.8c1.1,1.2,2,2.5,2.6,4.2c0.6,1.6,0.9,3.3,0.9,5.1
			s-0.3,3.5-0.9,5.1c-0.6,1.6-1.5,3-2.6,4.2c-1.1,1.2-2.4,2.1-4,2.8c-1.5,0.7-3.3,1-5.2,1c-1.9,0-3.6-0.3-5.2-1
			c-1.6-0.7-2.9-1.6-4-2.8c-1.1-1.2-2-2.5-2.5-4.2C0.3,63,0,61.3,0,59.5s0.3-3.5,0.9-5.1c0.6-1.6,1.5-3,2.5-4.2
			c1.1-1.2,2.4-2.1,4-2.8C9,46.8,10.7,46.4,12.6,46.4z M12.6,52.4c-0.9,0-1.8,0.2-2.7,0.5c-0.9,0.3-1.6,0.8-2.3,1.4
			c-0.7,0.6-1.2,1.4-1.6,2.2c-0.4,0.9-0.6,1.9-0.6,3s0.2,2.1,0.6,3c0.4,0.9,0.9,1.6,1.6,2.2c0.7,0.6,1.4,1.1,2.3,1.4
			c0.9,0.3,1.8,0.5,2.7,0.5c0.9,0,1.8-0.2,2.7-0.5c0.9-0.3,1.6-0.8,2.3-1.4c0.7-0.6,1.2-1.4,1.6-2.2c0.4-0.9,0.6-1.9,0.6-3
			s-0.2-2.1-0.6-3c-0.4-0.9-0.9-1.6-1.6-2.2c-0.7-0.6-1.4-1.1-2.3-1.4C14.4,52.6,13.5,52.4,12.6,52.4z"/>
	</g>
	<g class="st8">
		<path class="st9" d="M246.5,46.4c1.9,0,3.6,0.3,5.2,1s2.9,1.6,4,2.8c1.1,1.2,2,2.5,2.6,4.2c0.6,1.6,0.9,3.3,0.9,5.1
			s-0.3,3.5-0.9,5.1c-0.6,1.6-1.5,3-2.6,4.2c-1.1,1.2-2.4,2.1-4,2.8c-1.5,0.7-3.3,1-5.2,1c-1.9,0-3.6-0.3-5.2-1
			c-1.6-0.7-2.9-1.6-4-2.8c-1.1-1.2-2-2.5-2.5-4.2c-0.6-1.6-0.9-3.3-0.9-5.1s0.3-3.5,0.9-5.1c0.6-1.6,1.5-3,2.5-4.2
			c1.1-1.2,2.4-2.1,4-2.8C242.9,46.8,244.6,46.4,246.5,46.4z M246.5,52.4c-0.9,0-1.8,0.2-2.7,0.5c-0.9,0.3-1.6,0.8-2.3,1.4
			c-0.7,0.6-1.2,1.4-1.6,2.2c-0.4,0.9-0.6,1.9-0.6,3s0.2,2.1,0.6,3c0.4,0.9,0.9,1.6,1.6,2.2c0.7,0.6,1.4,1.1,2.3,1.4
			c0.9,0.3,1.8,0.5,2.7,0.5c0.9,0,1.8-0.2,2.7-0.5c0.9-0.3,1.6-0.8,2.3-1.4c0.7-0.6,1.2-1.4,1.6-2.2c0.4-0.9,0.6-1.9,0.6-3
			s-0.2-2.1-0.6-3c-0.4-0.9-0.9-1.6-1.6-2.2c-0.7-0.6-1.4-1.1-2.3-1.4C248.4,52.6,247.5,52.4,246.5,52.4z"/>
	</g>
	<rect x="86.8" y="56.2" class="st10" width="7" height="7"/>
	<rect x="93.8" y="56.2" class="st7" width="7" height="7"/>
	<rect x="93.8" y="25.2" class="st7" width="7" height="7"/>
	<rect x="93.8" y="73.3" class="st7" width="7" height="7"/>
	<rect x="93.8" y="86.8" class="st7" width="7" height="7"/>
</g>
</svg>
