<?xml version="1.0" encoding="utf-8"?>
<!-- Generator: Adobe Illustrator 28.0.0, SVG Export Plug-In . SVG Version: 6.00 Build 0)  -->
<svg version="1.1" id="Ebene_1" xmlns="http://www.w3.org/2000/svg" xmlns:xlink="http://www.w3.org/1999/xlink" x="0px" y="0px"
	 viewBox="0 0 15905.4 4798.3" style="enable-background:new 0 0 15905.4 4798.3;" xml:space="preserve">
<style type="text/css">
	.st0{fill:#5B5A5E;}
	.st1{fill:#76A722;}
</style>
<g>
	<g>
		<path class="st0" d="M1114.1,2310.9l-316.3-696.4H335.1v696.4H125V637.2h656.3c195.9,0,332.8,54.2,424.9,148.7
			c80.3,85,132.2,193.6,132.2,339.9s-47.2,245.5-127.5,330.5c-49.6,52-120.4,92.2-200.6,118l335.2,736.6H1114.1z M781.2,830.8H335.1
			v587.8h446.2c198.3,0,339.9-80.3,339.9-292.7S979.5,830.8,781.2,830.8z"/>
		<path class="st0" d="M2537.4,1779.8h-845.1c0,108.5,42.5,226.6,115.7,299.7c54.3,54.3,127.5,85,219.5,85
			c94.5,0,172.3-26,221.9-77.9c33-33.1,54.3-66.1,70.8-129.8h195.9c-16.5,118-87.3,228.9-184.1,295c-85,56.7-191.2,89.7-304.5,89.7
			c-167.6,0-304.5-70.8-396.6-179.5c-99.1-115.6-148.7-273.9-148.7-443.8c0-144,25.9-271.4,92-382.4c85-144,243.2-250.2,450.9-250.2
			c153.4,0,276.2,59,363.6,153.4c96.8,106.2,153.4,259.6,151.1,420.2L2537.4,1779.8z M2261.2,1364.3
			c-49.6-66.1-129.9-108.6-236.1-108.6c-217.2,0-323.4,177-328.1,351.8h637.3C2334.4,1517.8,2308.4,1428,2261.2,1364.3z"/>
		<path class="st0" d="M3500.5,2310.9v-757.7c0-179.5-73.2-285.7-262-285.7c-115.7,0-207.7,75.5-259.6,184.1
			c-40.1,87.3-42.5,212.4-42.5,304.6v554.7h-200.6V1116.4h174.7l16.5,179.4c61.4-136.9,226.6-210,361.2-210
			c271.5,0,413.1,162.8,413.1,439.1v786H3500.5z"/>
		<path class="st0" d="M4959.3,1779.8h-845.1c0,108.5,42.5,226.6,115.7,299.7c54.3,54.3,127.5,85,219.5,85
			c94.5,0,172.3-26,221.9-77.9c33-33.1,54.3-66.1,70.8-129.8H4938c-16.5,118-87.3,228.9-184.1,295c-85,56.7-191.2,89.7-304.5,89.7
			c-167.6,0-304.5-70.8-396.6-179.5c-99.1-115.6-148.7-273.9-148.7-443.8c0-144,25.9-271.4,92-382.4c85-144,243.2-250.2,450.9-250.2
			c153.4,0,276.2,59,363.6,153.4c96.8,106.2,153.4,259.6,151.1,420.2L4959.3,1779.8z M4683.1,1364.3
			c-49.6-66.1-129.9-108.6-236.1-108.6c-217.2,0-323.4,177-328.1,351.8h637.4C4756.3,1517.8,4730.3,1428,4683.1,1364.3z"/>
		<path class="st0" d="M6432.2,2310.9h-193.6l-311.6-913.6l-318.7,913.6h-191.2l-306.9-1194.5h198.3l229,901.8l304.5-887.7h172.3
			l299.8,887.7l231.3-901.8h195.9L6432.2,2310.9z"/>
		<path class="st0" d="M7825,2327.4c-106.2,0-172.3-80.2-172.3-181.7h-4.7c-68.5,120.4-217.2,195.9-384.8,195.9
			c-273.9,0-410.8-184.1-410.8-368.3c0-153.4,99.1-354.1,424.9-373l363.6-21.3v-87.4c0-59-7.1-132.2-61.4-181.7
			c-40.1-37.8-99.1-61.4-195.9-61.4c-108.6,0-177,30.7-217.2,70.8c-37.8,37.8-59,85-59,144h-195.9c2.3-108.6,42.5-186.5,103.9-250.3
			c80.3-85,221.9-127.4,368.2-127.4c231.3,0,363.6,99.1,420.2,228.9c23.6,54.3,35.4,115.7,35.4,184.2v578.4
			c0,63.8,26,80.3,66.1,80.3c21.3,0,51.9-7.1,51.9-7.1v148.7C7914.7,2320.4,7874.6,2327.4,7825,2327.4z M7640.9,1734.9l-321.1,18.9
			c-120.4,7.1-262,63.7-262,214.9c0,106.2,66.1,205.3,236.1,205.3c92.1,0,181.8-30.7,245.5-96.8c70.8-73.2,101.5-172.3,101.5-271.5
			V1734.9z"/>
		<path class="st0" d="M9066.6,2211.8c-77.9,80.2-191.2,129.8-337.6,129.8c-134.6,0-288-66.1-356.4-186.6l-14.2,155.8h-177V606.6
			H8382v649.1c63.7-108.6,217.2-169.9,347-169.9c139.3,0,250.2,47.2,328.2,120.4c120.4,115.7,181.8,304.5,181.8,509.9
			C9238.9,1914.3,9179.9,2096.1,9066.6,2211.8z M8696,1255.7c-87.3,0-146.4,35.4-193.6,77.9c-99.1,87.3-132.2,231.3-132.2,380.1
			c0,148.7,33.1,292.7,132.2,380.1c47.2,42.4,106.2,77.8,193.6,77.8c266.8,0,337.6-238.4,337.6-457.9
			C9033.5,1494.2,8962.7,1255.7,8696,1255.7z"/>
		<path class="st0" d="M9734.6,2325.1c-174.7,0-250.3-103.9-250.3-292.7V606.6h200.6v1414c0,80.3,26,122.7,108.6,122.7
			c66.1,0,82.6-2.3,82.6-2.3v169.9C9876.2,2310.9,9831.3,2325.1,9734.6,2325.1z"/>
		<path class="st0" d="M11080,1779.8h-845.1c0,108.5,42.5,226.6,115.7,299.7c54.2,54.3,127.5,85,219.5,85c94.5,0,172.3-26,222-77.9
			c33-33.1,54.3-66.1,70.8-129.8h195.9c-16.5,118-87.4,228.9-184.1,295c-85,56.7-191.3,89.7-304.6,89.7
			c-167.5,0-304.4-70.8-396.6-179.5c-99.1-115.6-148.7-273.9-148.7-443.8c0-144,25.9-271.4,92.1-382.4
			c85-144,243.2-250.2,450.9-250.2c153.4,0,276.1,59,363.5,153.4c96.8,106.2,153.4,259.6,151.1,420.2L11080,1779.8z M10803.8,1364.3
			c-49.6-66.1-129.8-108.6-236-108.6c-217.2,0-323.5,177-328.2,351.8h637.4C10877,1517.8,10851.1,1428,10803.8,1364.3z"/>
		<path class="st0" d="M12210.7,2207c-92.1,94.4-233.7,134.6-389.5,134.6c-148.7,0-285.7-35.4-387.2-134.6
			c-73.2-70.8-115.7-172.3-115.7-273.8h200.7c2.3,82.6,40.1,144,96.8,186.4c54.2,40.2,139.3,54.3,214.8,54.3
			c82.6,0,158.2-14.1,219.6-66.1c33.1-25.9,59-75.5,59-129.8c0-89.7-63.7-153.4-186.5-169.9c-52-7.1-186.5-23.6-269.1-35.4
			c-179.4-28.3-292.7-139.4-292.7-321.1c0-92.1,44.9-179.4,99.2-233.7c77.8-80.3,203-132.2,351.6-132.2
			c158.2,0,299.9,49.5,380.1,151c52,63.8,85,132.2,85,229.1h-200.6c-2.4-61.4-33.1-118.1-68.5-148.7
			c-49.5-44.9-115.6-63.8-195.9-63.8c-47.2,0-82.6,0-139.2,23.6c-75.6,30.6-120.4,94.4-120.4,160.5c0,99.2,61.4,141.6,160.5,155.8
			c66.1,9.5,160.5,18.9,288,40.1c170,28.4,304.5,151.2,304.5,330.5C12305.1,2067.8,12267.4,2148,12210.7,2207z"/>
		<path class="st0" d="M1114.7,4498.5l-33.8-191.6C1002,4437.5,826.2,4530,646,4530c-160,0-315.5-51.9-430.4-164.6
			C53.4,4207.8,8.3,3987,8.3,3700.8c0-254.6,33.8-489,207.3-658C330.5,2930.1,486,2871.6,646,2871.6c180.3,0,347,63.1,457.4,180.3
			c76.6,81.2,130.7,182.5,137.5,310.9h-209.6c-6.7-74.4-31.5-126.1-72.1-175.7c-72.1-85.6-182.5-126.1-313.2-126.1
			c-108.2,0-214.1,42.8-290.7,121.6c-130.7,135.2-139.7,351.6-139.7,518.3c0,160,11.3,389.8,144.2,524.9
			c76.6,78.9,178,115,286.2,115c112.6,0,218.6-38.3,290.7-110.4c105.9-103.6,137.5-259.2,137.5-405.5H646v-187h608.4v860.7H1114.7z"
			/>
		<path class="st0" d="M2050.1,3536.3c-90.1,0-164.5,40.5-216.3,90.1c-92.4,87.9-103.6,245.6-103.6,365v507h-189.3V3358.2h169
			l15.8,200.6c58.6-139.7,196-207.3,340.2-207.3c29.3,0,60.9,2.3,90.1,6.7v187.1C2122.2,3538.5,2083.8,3536.3,2050.1,3536.3z"/>
		<path class="st0" d="M2347.6,3097v-225.4h223.1V3097H2347.6z M2361.2,4498.5V3358.2h196v1140.3H2361.2z"/>
		<path class="st0" d="M3638.9,4498.5l-13.5-148.7c-65.4,114.9-211.8,178-340.2,178c-139.7,0-247.9-47.4-322.3-124
			c-108.2-110.4-164.5-283.9-164.5-473.1c0-196,58.6-376.3,173.5-486.7c74.4-69.8,180.3-114.9,313.2-114.9
			c123.9,0,270.4,58.6,331.2,162.3v-619.7h191.5v1626.9H3638.9z M3501.4,3565.6c-45.1-40.6-101.4-74.4-184.8-74.4
			c-254.6,0-322.2,227.5-322.2,437.1c0,209.6,67.6,437.1,322.2,437.1c83.4,0,139.7-33.8,184.8-74.2
			c94.6-83.4,126.2-220.8,126.2-362.9C3627.6,3786.4,3596.1,3648.9,3501.4,3565.6z"/>
		<path class="st0" d="M4806.4,4498.5V2900.9h205v1597.6H4806.4z"/>
		<path class="st0" d="M6086.4,4498.5v-723.3c0-171.3-69.9-272.7-250.1-272.7c-110.4,0-198.3,72.1-247.8,175.8
			c-38.3,83.3-40.6,202.8-40.6,290.7v529.5h-191.5V3358.2h166.7l15.8,171.4c58.6-130.8,216.3-200.6,344.7-200.6
			c259.1,0,394.4,155.5,394.4,419.1v750.4H6086.4z"/>
		<path class="st0" d="M6616.2,3097v-225.4h223.1V3097H6616.2z M6629.7,4498.5V3358.2h196v1140.3H6629.7z"/>
		<path class="st0" d="M7607.8,4514.2c-245.6,0-313.2-155.4-313.2-308.6v-682.7h-220.8v-164.6h220.8v-290.6l191.5-45v335.6h338
			v164.6h-338v660.3c0,110.3,47.3,155.4,153.2,155.4c81.1,0,196-20.2,196-20.2v164.4C7783.5,4496.2,7713.7,4514.2,7607.8,4514.2z"/>
		<path class="st0" d="M8099.1,3097v-225.4h223.1V3097H8099.1z M8112.7,4498.5V3358.2h196v1140.3H8112.7z"/>
		<path class="st0" d="M9467,4514.2c-101.4,0-164.5-76.6-164.5-173.5h-4.5c-65.3,114.9-207.3,187-367.3,187
			c-261.4,0-392-175.7-392-351.5c0-146.5,94.6-338.1,405.6-356.1l347-20.3v-83.3c0-56.3-6.8-126.2-58.6-173.5
			c-38.3-36.1-94.7-58.5-187.1-58.5c-103.6,0-169,29.3-207.3,67.6c-36,36.1-56.3,81.2-56.3,137.4h-187
			c2.3-103.6,40.6-178,99.2-238.8c76.6-81.2,211.8-121.7,351.5-121.7c220.8,0,347,94.7,401.1,218.6c22.6,51.9,33.8,110.4,33.8,175.7
			v552.1c0,60.8,24.8,76.6,63.1,76.6c20.2,0,49.5-6.8,49.5-6.8v141.9C9552.6,4507.5,9514.3,4514.2,9467,4514.2z M9291.3,3948.6
			l-306.5,18c-114.9,6.7-250.1,60.9-250.1,205.1c0,101.4,63.1,195.9,225.3,195.9c87.9,0,173.5-29.3,234.3-92.3
			c67.6-69.8,96.9-164.4,96.9-259.2V3948.6z"/>
		<path class="st0" d="M10204.1,4514.2c-245.6,0-313.2-155.4-313.2-308.6v-682.7h-220.8v-164.6h220.8v-290.6l191.5-45v335.6h338.1
			v164.6h-338.1v660.3c0,110.3,47.4,155.4,153.3,155.4c81.2,0,196-20.2,196-20.2v164.4
			C10379.8,4496.2,10309.9,4514.2,10204.1,4514.2z"/>
		<path class="st0" d="M10695.4,3097v-225.4h223.1V3097H10695.4z M10708.9,4498.5V3358.2h196v1140.3H10708.9z"/>
		<path class="st0" d="M11770.3,4498.5h-207.3l-421.3-1140.3h200.5l329,914.9l317.7-914.9h193.8L11770.3,4498.5z"/>
		<path class="st0" d="M13280.3,3991.5h-806.7c0,103.6,40.6,216.3,110.4,286.2c51.8,51.7,121.7,81.2,209.5,81.2
			c90.2,0,164.6-24.9,211.9-74.4c31.5-31.5,51.8-63.2,67.6-124h187c-15.7,112.7-83.3,218.6-175.7,281.6
			c-81.1,54.2-182.5,85.7-290.7,85.7c-159.9,0-290.7-67.6-378.5-171.2c-94.7-110.4-142-261.4-142-423.7c0-137.5,24.7-259.1,87.8-365
			c81.2-137.5,232.2-238.9,430.4-238.9c146.5,0,263.7,56.4,347.1,146.5c92.3,101.4,146.4,247.8,144.2,401.1L13280.3,3991.5z
			 M13016.6,3594.9c-47.3-63.1-123.9-103.6-225.4-103.6c-207.3,0-308.6,168.9-313.2,335.6h608.4
			C13086.5,3741.4,13061.7,3655.7,13016.6,3594.9z"/>
	</g>
	<g>
		<path class="st1" d="M13495.8,941.4L13495.8,941.4c-235.6,235.6-352.6,542.9-352.8,851.7l0,0c0.2,308.8,117.2,616.1,352.8,851.8
			l0,0c236.5,236.2,545.8,352.4,857.3,352.8l0,0c306.2-0.3,611.4-118.3,846.2-352.6l0,0c235.6-235.9,352.7-543.2,352.8-852l0,0
			c0-160.5-31.7-320.8-95.2-470.6l261.4-270.2c124.6,230.4,187.1,486,187.1,740.8l0,0c0.2,398-152.5,797.7-456.2,1101.5l0,0
			c-301.8,302-699.1,456.4-1096,456.2l0,0c-0.3,0-0.6,0-1.1,0l0,0c-398.8,0-800.8-151-1106-456.2l0,0
			c-303.9-303.8-456.5-703.4-456.3-1101.5l0,0c-0.2-398.2,152.5-797.7,456.3-1101.5l0,0l0,0c305.6-305.7,708-456.6,1107-456.2l0,0
			c275.3-0.2,550.7,74,794.3,220.5L14892.7,718c-169.3-86.2-354.2-129.3-539.5-129.3l0,0C14041.6,588.7,13732.4,704.9,13495.8,941.4
			L13495.8,941.4"/>
		<g>
			<polygon class="st1" points="14403.1,1546.1 15494.2,447.8 15744.7,696.6 14653.5,1794.9 14403.1,1546.1 			"/>
		</g>
	</g>
</g>
</svg>
