<svg width="718" height="326" viewBox="0 0 718 326" fill="none" xmlns="http://www.w3.org/2000/svg">
<path d="M52.132 253.85C51.732 254.55 51.2987 255.067 50.832 255.4C50.3987 255.7 49.8487 255.85 49.182 255.85C48.482 255.85 47.7154 255.6 46.882 255.1C46.082 254.567 45.1154 253.983 43.982 253.35C42.8487 252.717 41.5154 252.15 39.982 251.65C38.482 251.117 36.6987 250.85 34.632 250.85C32.7654 250.85 31.132 251.083 29.732 251.55C28.332 251.983 27.1487 252.6 26.182 253.4C25.2487 254.2 24.5487 255.167 24.082 256.3C23.6154 257.4 23.382 258.617 23.382 259.95C23.382 261.65 23.8487 263.067 24.782 264.2C25.7487 265.333 27.0154 266.3 28.582 267.1C30.1487 267.9 31.932 268.617 33.932 269.25C35.932 269.883 37.982 270.567 40.082 271.3C42.182 272 44.232 272.833 46.232 273.8C48.232 274.733 50.0154 275.933 51.582 277.4C53.1487 278.833 54.3987 280.6 55.332 282.7C56.2987 284.8 56.782 287.35 56.782 290.35C56.782 293.617 56.2154 296.683 55.082 299.55C53.982 302.383 52.3487 304.867 50.182 307C48.0487 309.1 45.432 310.767 42.332 312C39.232 313.2 35.682 313.8 31.682 313.8C29.382 313.8 27.1154 313.567 24.882 313.1C22.6487 312.667 20.4987 312.033 18.432 311.2C16.3987 310.367 14.482 309.367 12.682 308.2C10.882 307.033 9.28203 305.733 7.88203 304.3L11.832 297.85C12.1654 297.383 12.5987 297 13.132 296.7C13.6654 296.367 14.232 296.2 14.832 296.2C15.6654 296.2 16.5654 296.55 17.532 297.25C18.4987 297.917 19.6487 298.667 20.982 299.5C22.3154 300.333 23.8654 301.1 25.632 301.8C27.432 302.467 29.582 302.8 32.082 302.8C35.9154 302.8 38.882 301.9 40.982 300.1C43.082 298.267 44.132 295.65 44.132 292.25C44.132 290.35 43.6487 288.8 42.682 287.6C41.7487 286.4 40.4987 285.4 38.932 284.6C37.3654 283.767 35.582 283.067 33.582 282.5C31.582 281.933 29.5487 281.317 27.482 280.65C25.4154 279.983 23.382 279.183 21.382 278.25C19.382 277.317 17.5987 276.1 16.032 274.6C14.4654 273.1 13.1987 271.233 12.232 269C11.2987 266.733 10.832 263.95 10.832 260.65C10.832 258.017 11.3487 255.45 12.382 252.95C13.4487 250.45 14.982 248.233 16.982 246.3C18.982 244.367 21.4487 242.817 24.382 241.65C27.3154 240.483 30.682 239.9 34.482 239.9C38.7487 239.9 42.682 240.567 46.282 241.9C49.882 243.233 52.9487 245.1 55.482 247.5L52.132 253.85ZM92.9813 291.1C89.4146 291.267 86.4146 291.583 83.9813 292.05C81.5479 292.483 79.5979 293.05 78.1313 293.75C76.6646 294.45 75.6146 295.267 74.9813 296.2C74.3479 297.133 74.0313 298.15 74.0313 299.25C74.0313 301.417 74.6646 302.967 75.9313 303.9C77.2313 304.833 78.9146 305.3 80.9813 305.3C83.5146 305.3 85.6979 304.85 87.5313 303.95C89.3979 303.017 91.2146 301.617 92.9813 299.75V291.1ZM64.6813 268.85C70.5813 263.45 77.6813 260.75 85.9813 260.75C88.9813 260.75 91.6646 261.25 94.0313 262.25C96.3979 263.217 98.3979 264.583 100.031 266.35C101.665 268.083 102.898 270.167 103.731 272.6C104.598 275.033 105.031 277.7 105.031 280.6V313H99.4313C98.2646 313 97.3646 312.833 96.7313 312.5C96.0979 312.133 95.5979 311.417 95.2313 310.35L94.1313 306.65C92.8313 307.817 91.5646 308.85 90.3313 309.75C89.0979 310.617 87.8146 311.35 86.4813 311.95C85.1479 312.55 83.7146 313 82.1813 313.3C80.6813 313.633 79.0146 313.8 77.1813 313.8C75.0146 313.8 73.0146 313.517 71.1813 312.95C69.3479 312.35 67.7646 311.467 66.4313 310.3C65.0979 309.133 64.0646 307.683 63.3313 305.95C62.5979 304.217 62.2313 302.2 62.2313 299.9C62.2313 298.6 62.4479 297.317 62.8813 296.05C63.3146 294.75 64.0146 293.517 64.9813 292.35C65.9813 291.183 67.2646 290.083 68.8313 289.05C70.3979 288.017 72.3146 287.117 74.5813 286.35C76.8813 285.583 79.5479 284.967 82.5813 284.5C85.6146 284 89.0813 283.7 92.9813 283.6V280.6C92.9813 277.167 92.2479 274.633 90.7813 273C89.3146 271.333 87.1979 270.5 84.4313 270.5C82.4313 270.5 80.7646 270.733 79.4313 271.2C78.1313 271.667 76.9813 272.2 75.9813 272.8C74.9813 273.367 74.0646 273.883 73.2313 274.35C72.4313 274.817 71.5313 275.05 70.5313 275.05C69.6646 275.05 68.9313 274.833 68.3313 274.4C67.7313 273.933 67.2479 273.4 66.8813 272.8L64.6813 268.85ZM119.384 313V271L114.934 270.3C113.967 270.1 113.184 269.767 112.584 269.3C112.017 268.8 111.734 268.1 111.734 267.2V262.15H119.384V258.35C119.384 255.417 119.817 252.783 120.684 250.45C121.584 248.117 122.85 246.133 124.484 244.5C126.15 242.867 128.167 241.617 130.534 240.75C132.9 239.883 135.567 239.45 138.534 239.45C140.9 239.45 143.1 239.767 145.134 240.4L144.884 246.6C144.85 247.067 144.717 247.45 144.484 247.75C144.25 248.017 143.934 248.233 143.534 248.4C143.167 248.533 142.734 248.633 142.234 248.7C141.734 248.733 141.2 248.75 140.634 248.75C139.167 248.75 137.85 248.917 136.684 249.25C135.55 249.55 134.584 250.1 133.784 250.9C132.984 251.667 132.367 252.7 131.934 254C131.534 255.267 131.334 256.85 131.334 258.75V262.15H144.684V270.95H131.734V313H119.384ZM183.306 281.45C183.306 279.85 183.073 278.35 182.606 276.95C182.173 275.517 181.506 274.267 180.606 273.2C179.706 272.133 178.556 271.3 177.156 270.7C175.79 270.067 174.19 269.75 172.356 269.75C168.79 269.75 165.973 270.767 163.906 272.8C161.873 274.833 160.573 277.717 160.006 281.45H183.306ZM159.756 288.9C159.956 291.533 160.423 293.817 161.156 295.75C161.89 297.65 162.856 299.233 164.056 300.5C165.256 301.733 166.673 302.667 168.306 303.3C169.973 303.9 171.806 304.2 173.806 304.2C175.806 304.2 177.523 303.967 178.956 303.5C180.423 303.033 181.69 302.517 182.756 301.95C183.856 301.383 184.806 300.867 185.606 300.4C186.44 299.933 187.24 299.7 188.006 299.7C189.04 299.7 189.806 300.083 190.306 300.85L193.856 305.35C192.49 306.95 190.956 308.3 189.256 309.4C187.556 310.467 185.773 311.333 183.906 312C182.073 312.633 180.19 313.083 178.256 313.35C176.356 313.617 174.506 313.75 172.706 313.75C169.14 313.75 165.823 313.167 162.756 312C159.69 310.8 157.023 309.05 154.756 306.75C152.49 304.417 150.706 301.55 149.406 298.15C148.106 294.717 147.456 290.75 147.456 286.25C147.456 282.75 148.023 279.467 149.156 276.4C150.29 273.3 151.906 270.617 154.006 268.35C156.14 266.05 158.723 264.233 161.756 262.9C164.823 261.567 168.273 260.9 172.106 260.9C175.34 260.9 178.323 261.417 181.056 262.45C183.79 263.483 186.14 265 188.106 267C190.073 268.967 191.606 271.4 192.706 274.3C193.84 277.167 194.406 280.45 194.406 284.15C194.406 286.017 194.206 287.283 193.806 287.95C193.406 288.583 192.64 288.9 191.506 288.9H159.756ZM246.705 301.9V313H204.355V240.7H217.805V301.9H246.705ZM267.158 261.7V313H254.758V261.7H267.158ZM268.858 246.75C268.858 247.817 268.641 248.817 268.208 249.75C267.774 250.683 267.191 251.5 266.458 252.2C265.758 252.9 264.924 253.467 263.958 253.9C262.991 254.3 261.958 254.5 260.858 254.5C259.791 254.5 258.774 254.3 257.808 253.9C256.874 253.467 256.058 252.9 255.358 252.2C254.658 251.5 254.091 250.683 253.658 249.75C253.258 248.817 253.058 247.817 253.058 246.75C253.058 245.65 253.258 244.617 253.658 243.65C254.091 242.683 254.658 241.85 255.358 241.15C256.058 240.45 256.874 239.9 257.808 239.5C258.774 239.067 259.791 238.85 260.858 238.85C261.958 238.85 262.991 239.067 263.958 239.5C264.924 239.9 265.758 240.45 266.458 241.15C267.191 241.85 267.774 242.683 268.208 243.65C268.641 244.617 268.858 245.65 268.858 246.75ZM291.298 268C292.332 266.967 293.415 266.017 294.548 265.15C295.715 264.25 296.932 263.5 298.198 262.9C299.498 262.267 300.882 261.783 302.348 261.45C303.815 261.083 305.415 260.9 307.148 260.9C309.948 260.9 312.432 261.383 314.598 262.35C316.765 263.283 318.565 264.617 319.998 266.35C321.465 268.05 322.565 270.1 323.298 272.5C324.065 274.867 324.448 277.483 324.448 280.35V313H312.098V280.35C312.098 277.217 311.382 274.8 309.948 273.1C308.515 271.367 306.332 270.5 303.398 270.5C301.265 270.5 299.265 270.983 297.398 271.95C295.532 272.917 293.765 274.233 292.098 275.9V313H279.748V261.7H287.298C288.898 261.7 289.948 262.45 290.448 263.95L291.298 268ZM369.244 281.45C369.244 279.85 369.01 278.35 368.544 276.95C368.11 275.517 367.444 274.267 366.544 273.2C365.644 272.133 364.494 271.3 363.094 270.7C361.727 270.067 360.127 269.75 358.294 269.75C354.727 269.75 351.91 270.767 349.844 272.8C347.81 274.833 346.51 277.717 345.944 281.45H369.244ZM345.694 288.9C345.894 291.533 346.36 293.817 347.094 295.75C347.827 297.65 348.794 299.233 349.994 300.5C351.194 301.733 352.61 302.667 354.244 303.3C355.91 303.9 357.744 304.2 359.744 304.2C361.744 304.2 363.46 303.967 364.894 303.5C366.36 303.033 367.627 302.517 368.694 301.95C369.794 301.383 370.744 300.867 371.544 300.4C372.377 299.933 373.177 299.7 373.944 299.7C374.977 299.7 375.744 300.083 376.244 300.85L379.794 305.35C378.427 306.95 376.894 308.3 375.194 309.4C373.494 310.467 371.71 311.333 369.844 312C368.01 312.633 366.127 313.083 364.194 313.35C362.294 313.617 360.444 313.75 358.644 313.75C355.077 313.75 351.76 313.167 348.694 312C345.627 310.8 342.96 309.05 340.694 306.75C338.427 304.417 336.644 301.55 335.344 298.15C334.044 294.717 333.394 290.75 333.394 286.25C333.394 282.75 333.96 279.467 335.094 276.4C336.227 273.3 337.844 270.617 339.944 268.35C342.077 266.05 344.66 264.233 347.694 262.9C350.76 261.567 354.21 260.9 358.044 260.9C361.277 260.9 364.26 261.417 366.994 262.45C369.727 263.483 372.077 265 374.044 267C376.01 268.967 377.544 271.4 378.644 274.3C379.777 277.167 380.344 280.45 380.344 284.15C380.344 286.017 380.144 287.283 379.744 287.95C379.344 288.583 378.577 288.9 377.444 288.9H345.694ZM420.912 271.7C420.578 272.233 420.228 272.617 419.862 272.85C419.495 273.05 419.028 273.15 418.462 273.15C417.862 273.15 417.212 272.983 416.512 272.65C415.845 272.317 415.062 271.95 414.162 271.55C413.262 271.117 412.228 270.733 411.062 270.4C409.928 270.067 408.578 269.9 407.012 269.9C404.578 269.9 402.662 270.417 401.262 271.45C399.895 272.483 399.212 273.833 399.212 275.5C399.212 276.6 399.562 277.533 400.262 278.3C400.995 279.033 401.945 279.683 403.112 280.25C404.312 280.817 405.662 281.333 407.162 281.8C408.662 282.233 410.178 282.717 411.712 283.25C413.278 283.783 414.812 284.4 416.312 285.1C417.812 285.767 419.145 286.633 420.312 287.7C421.512 288.733 422.462 289.983 423.162 291.45C423.895 292.917 424.262 294.683 424.262 296.75C424.262 299.217 423.812 301.5 422.912 303.6C422.045 305.667 420.745 307.467 419.012 309C417.278 310.5 415.128 311.683 412.562 312.55C410.028 313.383 407.095 313.8 403.762 313.8C401.995 313.8 400.262 313.633 398.562 313.3C396.895 313 395.278 312.567 393.712 312C392.178 311.433 390.745 310.767 389.412 310C388.112 309.233 386.962 308.4 385.962 307.5L388.812 302.8C389.178 302.233 389.612 301.8 390.112 301.5C390.612 301.2 391.245 301.05 392.012 301.05C392.778 301.05 393.495 301.267 394.162 301.7C394.862 302.133 395.662 302.6 396.562 303.1C397.462 303.6 398.512 304.067 399.712 304.5C400.945 304.933 402.495 305.15 404.362 305.15C405.828 305.15 407.078 304.983 408.112 304.65C409.178 304.283 410.045 303.817 410.712 303.25C411.412 302.683 411.912 302.033 412.212 301.3C412.545 300.533 412.712 299.75 412.712 298.95C412.712 297.75 412.345 296.767 411.612 296C410.912 295.233 409.962 294.567 408.762 294C407.595 293.433 406.245 292.933 404.712 292.5C403.212 292.033 401.662 291.533 400.062 291C398.495 290.467 396.945 289.85 395.412 289.15C393.912 288.417 392.562 287.5 391.362 286.4C390.195 285.3 389.245 283.95 388.512 282.35C387.812 280.75 387.462 278.817 387.462 276.55C387.462 274.45 387.878 272.45 388.712 270.55C389.545 268.65 390.762 267 392.362 265.6C393.995 264.167 396.012 263.033 398.412 262.2C400.845 261.333 403.645 260.9 406.812 260.9C410.345 260.9 413.562 261.483 416.462 262.65C419.362 263.817 421.778 265.35 423.712 267.25L420.912 271.7ZM520.565 302.5C523.065 302.5 525.165 302.2 526.865 301.6C528.565 301 529.915 300.2 530.915 299.2C531.948 298.2 532.682 297.033 533.115 295.7C533.582 294.367 533.815 292.95 533.815 291.45C533.815 289.883 533.565 288.483 533.065 287.25C532.565 285.983 531.782 284.917 530.715 284.05C529.648 283.15 528.265 282.467 526.565 282C524.898 281.533 522.882 281.3 520.515 281.3H506.965V302.5H520.565ZM506.965 251.1V272H517.665C522.265 272 525.732 271.167 528.065 269.5C530.432 267.833 531.615 265.183 531.615 261.55C531.615 257.783 530.548 255.1 528.415 253.5C526.282 251.9 522.948 251.1 518.415 251.1H506.965ZM518.415 240.7C523.148 240.7 527.198 241.15 530.565 242.05C533.932 242.95 536.682 244.233 538.815 245.9C540.982 247.567 542.565 249.583 543.565 251.95C544.565 254.317 545.065 256.983 545.065 259.95C545.065 261.65 544.815 263.283 544.315 264.85C543.815 266.383 543.032 267.833 541.965 269.2C540.932 270.533 539.598 271.75 537.965 272.85C536.365 273.95 534.448 274.883 532.215 275.65C542.148 277.883 547.115 283.25 547.115 291.75C547.115 294.817 546.532 297.65 545.365 300.25C544.198 302.85 542.498 305.1 540.265 307C538.032 308.867 535.282 310.333 532.015 311.4C528.748 312.467 525.015 313 520.815 313H493.515V240.7H518.415ZM569.306 261.7V313H556.906V261.7H569.306ZM571.006 246.75C571.006 247.817 570.79 248.817 570.356 249.75C569.923 250.683 569.34 251.5 568.606 252.2C567.906 252.9 567.073 253.467 566.106 253.9C565.14 254.3 564.106 254.5 563.006 254.5C561.94 254.5 560.923 254.3 559.956 253.9C559.023 253.467 558.206 252.9 557.506 252.2C556.806 251.5 556.24 250.683 555.806 249.75C555.406 248.817 555.206 247.817 555.206 246.75C555.206 245.65 555.406 244.617 555.806 243.65C556.24 242.683 556.806 241.85 557.506 241.15C558.206 240.45 559.023 239.9 559.956 239.5C560.923 239.067 561.94 238.85 563.006 238.85C564.106 238.85 565.14 239.067 566.106 239.5C567.073 239.9 567.906 240.45 568.606 241.15C569.34 241.85 569.923 242.683 570.356 243.65C570.79 244.617 571.006 245.65 571.006 246.75ZM593.547 270.6C595.147 267.533 597.047 265.133 599.247 263.4C601.447 261.633 604.047 260.75 607.047 260.75C609.414 260.75 611.314 261.267 612.747 262.3L611.947 271.55C611.78 272.15 611.53 272.583 611.197 272.85C610.897 273.083 610.48 273.2 609.947 273.2C609.447 273.2 608.697 273.117 607.697 272.95C606.73 272.783 605.78 272.7 604.847 272.7C603.48 272.7 602.264 272.9 601.197 273.3C600.13 273.7 599.164 274.283 598.297 275.05C597.464 275.783 596.714 276.683 596.047 277.75C595.414 278.817 594.814 280.033 594.247 281.4V313H581.897V261.7H589.147C590.414 261.7 591.297 261.933 591.797 262.4C592.297 262.833 592.63 263.633 592.797 264.8L593.547 270.6ZM650.034 274.8C648.634 273.1 647.101 271.9 645.434 271.2C643.801 270.5 642.034 270.15 640.134 270.15C638.268 270.15 636.584 270.5 635.084 271.2C633.584 271.9 632.301 272.967 631.234 274.4C630.168 275.8 629.351 277.6 628.784 279.8C628.218 281.967 627.934 284.533 627.934 287.5C627.934 290.5 628.168 293.05 628.634 295.15C629.134 297.217 629.834 298.917 630.734 300.25C631.634 301.55 632.734 302.5 634.034 303.1C635.334 303.667 636.784 303.95 638.384 303.95C640.951 303.95 643.134 303.417 644.934 302.35C646.734 301.283 648.434 299.767 650.034 297.8V274.8ZM662.384 238.7V313H654.834C653.201 313 652.168 312.25 651.734 310.75L650.684 305.8C648.618 308.167 646.234 310.083 643.534 311.55C640.868 313.017 637.751 313.75 634.184 313.75C631.384 313.75 628.818 313.167 626.484 312C624.151 310.833 622.134 309.15 620.434 306.95C618.768 304.717 617.468 301.967 616.534 298.7C615.634 295.433 615.184 291.7 615.184 287.5C615.184 283.7 615.701 280.167 616.734 276.9C617.768 273.633 619.251 270.8 621.184 268.4C623.118 266 625.434 264.133 628.134 262.8C630.834 261.433 633.868 260.75 637.234 260.75C640.101 260.75 642.551 261.2 644.584 262.1C646.618 263 648.434 264.217 650.034 265.75V238.7H662.384ZM705.873 271.7C705.539 272.233 705.189 272.617 704.823 272.85C704.456 273.05 703.989 273.15 703.423 273.15C702.823 273.15 702.173 272.983 701.473 272.65C700.806 272.317 700.023 271.95 699.123 271.55C698.223 271.117 697.189 270.733 696.023 270.4C694.889 270.067 693.539 269.9 691.973 269.9C689.539 269.9 687.623 270.417 686.223 271.45C684.856 272.483 684.173 273.833 684.173 275.5C684.173 276.6 684.523 277.533 685.223 278.3C685.956 279.033 686.906 279.683 688.073 280.25C689.273 280.817 690.623 281.333 692.123 281.8C693.623 282.233 695.139 282.717 696.673 283.25C698.239 283.783 699.773 284.4 701.273 285.1C702.773 285.767 704.106 286.633 705.273 287.7C706.473 288.733 707.423 289.983 708.123 291.45C708.856 292.917 709.223 294.683 709.223 296.75C709.223 299.217 708.773 301.5 707.873 303.6C707.006 305.667 705.706 307.467 703.973 309C702.239 310.5 700.089 311.683 697.523 312.55C694.989 313.383 692.056 313.8 688.723 313.8C686.956 313.8 685.223 313.633 683.523 313.3C681.856 313 680.239 312.567 678.673 312C677.139 311.433 675.706 310.767 674.373 310C673.073 309.233 671.923 308.4 670.923 307.5L673.773 302.8C674.139 302.233 674.573 301.8 675.073 301.5C675.573 301.2 676.206 301.05 676.973 301.05C677.739 301.05 678.456 301.267 679.123 301.7C679.823 302.133 680.623 302.6 681.523 303.1C682.423 303.6 683.473 304.067 684.673 304.5C685.906 304.933 687.456 305.15 689.323 305.15C690.789 305.15 692.039 304.983 693.073 304.65C694.139 304.283 695.006 303.817 695.673 303.25C696.373 302.683 696.873 302.033 697.173 301.3C697.506 300.533 697.673 299.75 697.673 298.95C697.673 297.75 697.306 296.767 696.573 296C695.873 295.233 694.923 294.567 693.723 294C692.556 293.433 691.206 292.933 689.673 292.5C688.173 292.033 686.623 291.533 685.023 291C683.456 290.467 681.906 289.85 680.373 289.15C678.873 288.417 677.523 287.5 676.323 286.4C675.156 285.3 674.206 283.95 673.473 282.35C672.773 280.75 672.423 278.817 672.423 276.55C672.423 274.45 672.839 272.45 673.673 270.55C674.506 268.65 675.723 267 677.323 265.6C678.956 264.167 680.973 263.033 683.373 262.2C685.806 261.333 688.606 260.9 691.773 260.9C695.306 260.9 698.523 261.483 701.423 262.65C704.323 263.817 706.739 265.35 708.673 267.25L705.873 271.7Z" fill="#004494"/>
<path d="M463.057 285.75V262.1C463.057 259.867 463.207 257.4 463.507 254.7L441.057 285.75H463.057ZM482.907 285.75V292.9C482.907 293.567 482.69 294.15 482.257 294.65C481.824 295.117 481.207 295.35 480.407 295.35H473.807V313H463.057V295.35H432.557C431.724 295.35 430.99 295.1 430.357 294.6C429.724 294.067 429.324 293.417 429.157 292.65L427.857 286.4L462.107 240.65H473.807V285.75H482.907Z" fill="#F8AE21"/>
<path fill-rule="evenodd" clip-rule="evenodd" d="M707 0H487V144.844C488.753 142.291 490.343 139.871 491.307 138.26C493.143 135.194 496.735 131.17 499.289 129.318C508.029 122.979 527.771 114.943 546.75 110C553.353 108.28 579.574 97.5852 592.531 91.3269C594.355 90.4465 597.3 87.2718 599.074 84.2734C602.137 79.0998 602.216 78.4576 600.631 71.7031C598.742 63.6584 594.635 55.9686 586.793 45.7918C580.738 37.935 579.212 30.6551 581.827 22.1083C583.019 18.2132 584.388 16.6743 588.267 14.8715C594.647 11.907 605.025 11.7937 611.13 14.6205C613.672 15.7986 617.691 19.271 620.061 22.3371C622.431 25.4032 627.308 29.8249 630.898 32.1636C665.152 54.474 680.171 65.3584 678.604 66.7361C676.527 68.5634 658.665 61.489 630.38 47.6354C615.526 40.3601 608.59 38.5877 610.466 42.5447C611 43.6679 612.04 46.1643 612.78 48.0908C613.519 50.0173 615.854 55.6802 617.966 60.6763C624.916 77.1067 625.16 80.78 620.968 105.728C618.872 118.189 612.802 136.242 608.786 141.948C601.988 151.609 595.092 160.436 592.971 162.192C586.675 167.403 575.957 175.111 571.542 177.601C558.159 185.15 541.04 207.304 538.779 220C538.779 220 538.779 220 538.779 220H707V0ZM527.71 220C528.295 218.902 529.018 217.62 529.888 216.1C533.211 210.292 533.241 210.031 531.068 205.999C529.84 203.723 528.836 201.379 528.836 200.789C528.836 200.201 527.941 197.069 526.849 193.833L524.863 187.946L517.229 187.059C505.001 185.641 503.156 185.888 497.06 189.774C493.882 191.8 490.213 193.457 488.906 193.457C488.263 193.457 487.583 193.592 487 193.811V220H527.71Z" fill="#004494"/>
<path fill-rule="evenodd" clip-rule="evenodd" d="M226 0H6V186.717C6.51345 186.622 7.08756 186.541 7.74452 186.463C10.6301 186.12 12.1976 185.555 12.524 184.74C13.6899 181.83 16.5441 179.888 19.8949 179.726C22.3694 179.606 23.6584 179.083 24.8352 177.724C25.7116 176.713 27.2642 175.473 28.2872 174.969C29.8799 174.185 30.4746 174.285 32.4383 175.665C33.9384 176.719 35.6 177.196 37.2476 177.044C39.2968 176.856 40.0571 176.257 41.3343 173.829C42.7152 171.203 42.9019 169.365 42.8932 158.534C42.887 151.604 42.4249 143.778 41.8349 140.628C38.3232 121.875 30.2345 93.7109 22.8354 74.4753C18.1492 62.2917 15.0518 53.5744 15.0518 52.5664C15.0518 50.7094 18.678 52.1725 22.0414 55.3874C28.6144 61.6702 31.4066 65.7334 38.7234 79.6665C44.6993 91.0466 48.0619 99.8609 51.4504 113.036C54.3414 124.274 55.0311 129.886 55.0483 142.307C55.0609 151.336 55.2649 153.311 56.1836 153.311C58.0453 153.311 61.32 145.529 63.5081 135.909C65.4115 127.538 65.5754 125.42 65.5951 108.919C65.617 90.2513 64.0958 75.6556 59.7227 52.5896C58.8283 47.8706 57.4247 40.4843 56.6049 36.1757C55.7842 31.867 55.1025 26.9152 55.0883 25.1709L55.064 22H58.145C60.7457 22 61.6095 22.4365 63.6847 24.7978C69.1483 31.015 72.7745 40.1806 78.2209 61.5426C82.9572 80.1194 84.2611 101.643 81.4313 114.515C79.1561 124.859 78.978 128.793 80.693 130.807L82.1625 132.533L84.327 130.914C89.1842 127.28 99.0806 102.777 102.605 85.6569C105.53 71.4469 106.812 57.1676 106.829 38.6004L106.844 22H111.197C114.962 22 115.806 22.2768 117.448 24.0517C118.493 25.1806 119.359 26.4758 119.372 26.9309C119.386 27.386 120.456 29.6459 121.751 31.9528C123.105 34.3664 124.105 37.2806 124.105 38.8153C124.105 40.2829 124.498 43.7507 124.979 46.5209C125.71 50.7273 125.573 53.887 124.148 65.6894C122.116 82.5218 119.94 91.3853 114.954 103.152C110.968 112.559 109.434 119.737 111.411 119.737C115.354 119.737 134.205 95.1792 142.336 79.4487C147.01 70.4069 160.723 38.3259 161.506 34.5999C162.139 31.5895 163.277 31.1605 165.036 33.2704C167.046 35.6825 169.557 40.2657 169.842 42.0421C169.97 42.839 170.527 44.0096 171.08 44.6437C171.909 45.5935 171.726 47.1237 170.037 53.3416C166.23 67.3621 163.118 74.1127 151.293 93.9974C147.827 99.8258 146.857 102.152 146.857 104.629C146.857 106.373 147.088 107.8 147.371 107.8C148.44 107.8 153.765 103.57 160.462 97.4018C169.158 89.3918 178.2 78.4765 185.961 66.6182C192.54 56.5655 194.663 55.0255 196.374 59.0671C196.863 60.2235 197.623 61.9097 198.064 62.8139C198.508 63.7279 198.657 66.3817 198.398 68.7826C197.848 73.8903 192.945 83.5537 188.07 89.1404C180.707 97.5779 179.506 99.1663 178.539 101.737C177.322 104.976 177.274 105.627 178.147 106.938C179.101 108.369 182.385 106.623 191.968 99.5901C203.104 91.4174 207.901 89.303 210.248 91.5353C211.603 92.823 211.407 96.6356 209.906 98.2128C208.718 99.4617 208.718 99.5968 209.906 100.03C210.613 100.288 211.19 100.792 211.19 101.15C211.19 101.508 209.069 104.028 206.476 106.748C202.09 111.351 200.153 114.712 201.273 115.778C201.532 116.024 203.724 115.505 206.144 114.624C213.547 111.93 218.194 113.102 214.694 116.781C213.35 118.193 213.361 118.245 214.991 118.245C215.921 118.245 216.682 118.638 216.682 119.119C216.682 120.483 209.906 126.319 206.967 127.486C204.114 128.62 198.358 135.119 199.141 136.323C199.808 137.35 204.396 136.533 212.277 133.984C215.966 132.79 220.348 131.595 222.014 131.327C223.986 131.01 225.313 131.246 226 131.832V0ZM226 134.698C225.289 135.85 223.894 137.148 221.821 138.366C220.289 139.267 218.983 140.311 218.918 140.689C218.569 142.72 218.872 143.117 221.389 143.924C223.154 144.49 224.025 145.191 223.828 145.887C223.66 146.482 223.576 147.882 223.642 148.997C223.738 150.593 223.219 151.286 221.203 152.256C217.842 153.873 213.544 156.953 213.544 157.745C213.544 158.09 214.513 158.603 215.696 158.886C220.819 160.109 221.079 162.373 216.526 166.098C213.667 168.437 213.35 168.977 214.239 169.996C215.131 171.017 214.879 171.399 212.389 172.796C210.112 174.073 209.597 174.754 209.935 176.034C210.384 177.74 210.002 177.993 198.946 183.334C194.432 185.515 193.664 186.635 196.418 187.02C197.355 187.151 198.265 187.673 198.441 188.18C198.749 189.068 198.113 189.414 192.581 191.374C190.738 192.028 190.102 192.687 190.227 193.814C190.365 195.045 189.699 195.555 186.951 196.328C182.515 197.577 182.368 197.765 184.535 199.434C187.127 201.429 186.137 203.299 182.488 203.299C179.657 203.299 179.64 203.318 180.848 205.071C181.976 206.707 181.95 206.964 180.516 208.428C179.607 209.355 177.997 210.014 176.639 210.014C174.154 210.014 173.517 211.055 175.548 211.796C176.284 212.064 176.678 212.917 176.528 213.913C176.322 215.286 175.584 215.686 172.355 216.177C166.63 217.046 166.113 217.285 167.221 218.555C167.534 218.913 167.643 219.44 167.602 220H226V134.698Z" fill="#F8AE21"/>
<path fill-rule="evenodd" clip-rule="evenodd" d="M466 0H246V220H287.316L311.577 183.148L311.4 183.118L312.165 182.255L312.61 181.579H312.764L314.52 179.596L328.695 163.597V162.192V133.263V133.175L300.767 133.177C301.78 133.219 302.588 134.054 302.588 135.078C302.588 136.128 301.737 136.98 300.686 136.98H298.488C299.514 137.008 300.337 137.848 300.337 138.881C300.337 139.932 299.485 140.783 298.435 140.783H284.763C283.712 140.783 282.86 139.932 282.86 138.881C282.86 137.848 283.683 137.008 284.709 136.98H282.27C281.22 136.98 280.368 136.128 280.368 135.078C280.368 134.062 281.164 133.232 282.166 133.178L281.633 133.178C280.562 133.178 280.654 132.861 281.621 132.309C282.215 131.969 283.141 131.542 284.331 131.045C285.64 130.498 287.269 129.867 289.129 129.179C300.393 125.011 320.125 118.723 328.556 116.067L328.643 116.04V102.211V101.204L301.703 101.225C302.235 101.562 302.588 102.156 302.588 102.832C302.588 103.883 301.737 104.734 300.686 104.734H282.27C281.22 104.734 280.368 103.883 280.368 102.832C280.368 102.158 280.719 101.565 281.248 101.228C280.543 101.166 280.716 100.877 281.569 100.414C282.171 100.087 283.112 99.6742 284.323 99.1941C285.759 98.6248 287.574 97.9612 289.653 97.235C301.005 93.2694 320.231 87.4397 328.557 84.9432V70.3841V68.6774L300.899 68.6872L295.174 68.6892L291.808 68.6904C290.927 68.6907 291.003 68.4348 291.798 67.9901C292.395 67.6567 293.396 67.2171 294.702 66.6998C296.179 66.1151 298.046 65.431 300.159 64.6886C309.106 61.545 322.467 57.3555 329.32 55.2338V38.3874V34.9122C329.145 34.4682 329.334 33.9474 329.899 33.5231L353.035 16.155C352.997 15.7389 353.237 15.3437 353.754 15.0852C354.518 14.7025 355.653 14.7363 356.548 15.1197C356.73 15.1618 356.903 15.2202 357.061 15.2953C357.384 15.4489 357.606 15.6533 357.726 15.8827L380.769 32.8007C381.43 33.286 381.61 33.9021 381.313 34.3874H381.536V38.3874V54.4175L381.892 54.5272C388.927 56.6957 403.661 61.2922 413.218 64.6563C415.313 65.3938 417.159 66.072 418.62 66.6525C419.907 67.1637 420.896 67.5991 421.494 67.9323C422.322 68.3934 422.4 68.6587 421.483 68.6583L418.143 68.657L412.476 68.6548L381.537 68.6425V70.3841V85.0767C390.093 87.6367 408.392 93.1791 419.388 97.0008C421.49 97.7311 423.324 98.3986 424.774 98.9704C425.99 99.4504 426.935 99.8631 427.538 100.189C428.232 100.564 428.472 100.824 428.151 100.939C429.112 101.035 429.863 101.846 429.863 102.832C429.863 103.883 429.011 104.734 427.961 104.734H409.545C408.494 104.734 407.643 103.883 407.643 102.832C407.643 101.948 408.247 101.204 409.065 100.991L381.534 100.969V102.211V116.21C390.546 119.014 410.495 125.296 421.854 129.454C423.745 130.146 425.398 130.779 426.723 131.327C427.901 131.815 428.819 132.235 429.415 132.571C430.412 133.132 430.506 133.455 429.402 133.454L428.326 133.454C429.201 133.624 429.863 134.396 429.863 135.321C429.863 136.372 429.011 137.223 427.961 137.223H425.863C426.846 137.297 427.621 138.118 427.621 139.12C427.621 140.171 426.769 141.023 425.719 141.023H412.047C410.996 141.023 410.145 140.171 410.145 139.12C410.145 138.118 410.919 137.297 411.902 137.223H409.545C408.494 137.223 407.643 136.372 407.643 135.321C407.643 134.386 408.317 133.609 409.206 133.449L382.155 133.442V162.192V163.65L397.607 179.593L401.024 183.118L400.768 183.157L430.116 220H466V0ZM382.155 129.263V129.443L384.008 129.444L400.076 129.448L409.616 129.451C408.105 128.943 406.555 128.428 404.989 127.912C397.924 125.585 390.59 123.255 385.02 121.506C383.759 121.11 382.589 120.745 381.534 120.415V128.756V129.263H382.155ZM377.534 103.524V114.971C377.108 114.84 376.881 114.77 376.881 114.77L376.892 118.975L376.915 127.119L358.464 115.705L377.534 103.524ZM381.537 96.5107V96.9698L383.756 96.9716L399.251 96.9843L406.575 96.9903C405.715 96.7152 404.846 96.4386 403.971 96.1616C397.155 94.0034 390.081 91.8433 384.707 90.2214C383.567 89.8775 382.504 89.5578 381.537 89.2677V96.5107ZM377.537 70.3841V83.8852C377.095 83.7544 376.859 83.6845 376.859 83.6845L376.875 87.8764L376.908 95.9282L357.951 83.3106L377.371 70.3841H377.537ZM332.557 95.0109L332.584 87.9295L332.601 83.7365L332.557 83.7496V70.839L351.294 83.3107L332.557 95.7826V95.0109ZM328.557 89.1349C327.411 89.4794 326.111 89.8713 324.693 90.3007C319.281 91.9395 312.158 94.1223 305.295 96.3031C304.325 96.6114 303.361 96.9193 302.409 97.2251L310.055 97.2192L325.658 97.2073L328.547 97.205L328.557 94.6352V89.1349ZM333.692 64.1155L333.709 58.0821L333.722 53.8793L333.558 53.9292L333.32 54.002V39.9025L352.043 51.8978L333.692 64.1155ZM329.32 59.4375C328.738 59.6184 328.12 59.8106 327.472 60.0127C323.353 61.2974 318.026 62.9772 312.783 64.6842L315.198 64.6833L328.02 64.6788L329.32 64.6783V59.4375ZM397.583 185.579L425.002 220H409.615L360.856 200.93L397.203 185.995L396.738 185.579H397.583ZM388.702 185.579H384.902L379.635 186.383H330.349L325.682 185.579H321.605L355.982 199.024L388.702 185.579ZM350.831 201.14L314.003 186.737L292.105 220H304.933L350.831 201.14ZM328.814 181.579H384.599L385.467 181.446L356.311 172.844L328.814 181.579ZM391.787 179.335L379.048 166.192H378.155H377.252L362.8 170.783L391.787 179.335ZM331.74 166.192L319.156 180.395L319.693 180.488L349.801 170.924L333.762 166.192H332.695H331.74ZM374.742 161.05L354.955 149.083L334.386 161.05H374.742ZM332.707 161.05L332.695 161.04V161.05H332.707ZM377.158 34.3874H334.51L352.163 21.1349C352.17 22.4029 353.628 23.4293 355.427 23.4293C357.229 23.4293 358.69 22.3982 358.69 21.1263C358.69 21.0173 358.679 20.9101 358.659 20.8051L377.158 34.3874ZM355.237 18.8271C355.3 18.8246 355.363 18.8233 355.427 18.8233C355.625 18.8233 355.82 18.8359 356.009 18.8599L355.597 18.5572L355.237 18.8271ZM356.29 168.862L364.696 166.192H347.239L356.29 168.862ZM355.705 203.047L314.446 220H399.052L355.705 203.047ZM370.714 70.3841H338.531L354.623 81.0949L370.714 70.3841ZM338.12 96.5107L354.623 85.5263L371.126 96.5107H338.12ZM336.65 102.211L355.023 113.576L372.816 102.211H336.65ZM332.643 103.992L351.634 115.74L332.643 127.87V103.992ZM355.075 117.869L338.031 128.756H372.674L355.075 117.869ZM332.695 133.263H332.774L332.695 133.325V133.263ZM355.014 144.842L335.869 133.263H374.916L355.014 144.842ZM351.41 146.939L332.695 135.62V157.827L351.41 146.939ZM358.559 146.986L378.155 135.585V158.838L358.559 146.986ZM337.741 38.3874H372.336L355.37 49.6824L337.741 38.3874ZM358.824 51.8952L377.536 39.4374V63.8836L358.824 51.8952ZM372.387 64.9323L355.497 54.1106L339.242 64.9323H372.387ZM282.865 106.64C282.865 105.589 283.717 104.737 284.767 104.737H298.44C299.49 104.737 300.342 105.589 300.342 106.64C300.342 107.69 299.49 108.542 298.44 108.542H284.767C283.717 108.542 282.865 107.69 282.865 106.64ZM410.141 106.64C410.141 105.589 410.992 104.737 412.043 104.737H425.715C426.766 104.737 427.617 105.589 427.617 106.64C427.617 107.69 426.766 108.542 425.715 108.542H412.043C410.992 108.542 410.141 107.69 410.141 106.64ZM292.059 68.6904C291.009 68.6904 290.157 69.5421 290.157 70.5926C290.157 71.6432 291.009 72.4948 292.059 72.4948H294.413C293.43 72.5685 292.655 73.3896 292.655 74.3916C292.655 75.4422 293.507 76.2938 294.557 76.2938H308.23C309.28 76.2938 310.132 75.4422 310.132 74.3916C310.132 73.3896 309.357 72.5685 308.374 72.4948H310.475C311.526 72.4948 312.377 71.6432 312.377 70.5926C312.377 69.5421 311.526 68.6904 310.475 68.6904H292.059ZM403.018 68.6904C401.968 68.6904 401.116 69.5421 401.116 70.5926C401.116 71.6432 401.968 72.4948 403.018 72.4948H405.373C404.39 72.5685 403.615 73.3896 403.615 74.3916C403.615 75.4422 404.467 76.2938 405.517 76.2938H419.19C420.24 76.2938 421.092 75.4422 421.092 74.3916C421.092 73.3896 420.317 72.5685 419.334 72.4948H421.434C422.485 72.4948 423.336 71.6432 423.336 70.5926C423.336 69.5421 422.485 68.6904 421.434 68.6904H403.018ZM400.604 64.6512L397.154 64.6499L383.817 64.6446L381.923 64.6439L381.905 58.7332C382.685 58.9745 383.535 59.2377 384.441 59.5194C388.957 60.9237 394.868 62.7832 400.604 64.6512ZM324.721 121.493C326.124 121.047 327.41 120.639 328.547 120.28L328.526 129.177L325.655 129.177L310.072 129.178L301.235 129.178C302.586 128.72 303.966 128.255 305.36 127.79C312.21 125.502 319.32 123.212 324.721 121.493ZM354.69 21.1263C354.69 20.1164 355.274 19.5956 355.427 19.4875C355.579 19.5956 356.163 20.1164 356.163 21.1263C356.163 22.1363 355.579 22.657 355.427 22.7651C355.274 22.657 354.69 22.1363 354.69 21.1263ZM355.553 19.4154C355.553 19.4155 355.552 19.416 355.549 19.4167C355.552 19.4158 355.553 19.4154 355.553 19.4154ZM355.304 19.4167C355.302 19.416 355.3 19.4155 355.3 19.4154C355.3 19.4154 355.302 19.4158 355.304 19.4167ZM355.301 22.8368C355.301 22.837 355.3 22.8372 355.3 22.8372C355.3 22.8373 355.302 22.8369 355.304 22.8359C355.303 22.8363 355.302 22.8366 355.301 22.8368ZM355.552 22.8368C355.551 22.8366 355.55 22.8363 355.549 22.8359C355.552 22.8369 355.553 22.8373 355.553 22.8372C355.553 22.8372 355.552 22.837 355.552 22.8368Z" fill="#6CA001"/>
</svg>
